<?xml version="1.0" encoding="iso-8859-1"?>
<!-- Generator: Adobe Illustrator 19.0.0, SVG Export Plug-In . SVG Version: 6.00 Build 0)  -->
<svg version="1.1" id="Layer_1" xmlns="http://www.w3.org/2000/svg" xmlns:xlink="http://www.w3.org/1999/xlink" x="0px" y="0px"
	 viewBox="0 0 469 469" style="enable-background:new 0 0 469 469;" xml:space="preserve">
<g>
	<g>
		<g>
			<path d="M444.299,69.66H24.701C11.081,69.66,0,80.741,0,94.361v280.278c0,13.62,11.081,24.701,24.701,24.701h419.598
				c13.62,0,24.701-11.081,24.701-24.701V94.361C469,80.741,457.919,69.66,444.299,69.66z M454,374.639
				c0,5.349-4.352,9.701-9.701,9.701H24.701c-5.35,0-9.701-4.352-9.701-9.701V128.007h439V374.639z M454,113.007H15V94.361
				c0-5.349,4.352-9.701,9.701-9.701h419.598c5.35,0,9.701,4.352,9.701,9.701V113.007z"/>
			<path d="M267.5,91.333h-188c-4.143,0-7.5,3.358-7.5,7.5c0,4.142,3.357,7.5,7.5,7.5h188c4.143,0,7.5-3.358,7.5-7.5
				C275,94.691,271.643,91.333,267.5,91.333z"/>
			<path d="M54.503,91.329c-1.98,0-3.91,0.81-5.311,2.2c-1.39,1.4-2.189,3.33-2.189,5.3c0,1.98,0.8,3.91,2.189,5.31
				c1.401,1.39,3.33,2.19,5.311,2.19c1.97,0,3.899-0.8,5.3-2.19c1.4-1.4,2.2-3.33,2.2-5.31c0-1.97-0.8-3.9-2.2-5.3
				C58.413,92.139,56.473,91.329,54.503,91.329z"/>
			<path d="M30.503,91.329c-1.98,0-3.91,0.81-5.311,2.2c-1.39,1.4-2.189,3.33-2.189,5.31c0,1.97,0.8,3.9,2.189,5.3
				c1.401,1.39,3.33,2.2,5.311,2.2c1.97,0,3.899-0.81,5.3-2.2c1.4-1.4,2.2-3.33,2.2-5.3c0-1.98-0.8-3.91-2.2-5.31
				C34.413,92.139,32.473,91.329,30.503,91.329z"/>
			<path d="M182.734,314.729c1.473,1.529,3.437,2.298,5.404,2.298c1.872,0,3.746-0.696,5.201-2.097
				c2.983-2.873,3.073-7.621,0.201-10.604l-51.838-53.841l51.838-53.841c2.872-2.983,2.782-7.731-0.201-10.604
				c-2.984-2.873-7.731-2.784-10.605,0.201l-56.846,59.043c-2.796,2.904-2.796,7.499,0,10.403L182.734,314.729z"/>
			<path d="M327.299,250.485l-51.838,53.841c-2.873,2.984-2.783,7.731,0.2,10.604c1.455,1.401,3.329,2.097,5.201,2.097
				c1.967,0,3.932-0.769,5.403-2.298l56.847-59.042c2.797-2.904,2.797-7.499,0.001-10.403l-56.848-59.043
				c-2.871-2.984-7.62-3.074-10.604-0.201c-2.983,2.873-3.073,7.621-0.201,10.604L327.299,250.485z"/>
			<path d="M210.737,333.71c0.674,0.188,1.352,0.277,2.019,0.277c3.282,0,6.296-2.171,7.221-5.487l43.498-155.992
				c1.111-3.99-1.221-8.126-5.211-9.239c-3.99-1.111-8.127,1.22-9.239,5.21l-43.498,155.992
				C204.415,328.461,206.747,332.597,210.737,333.71z"/>
		</g>
	</g>
</g>
<g>
</g>
<g>
</g>
<g>
</g>
<g>
</g>
<g>
</g>
<g>
</g>
<g>
</g>
<g>
</g>
<g>
</g>
<g>
</g>
<g>
</g>
<g>
</g>
<g>
</g>
<g>
</g>
<g>
</g>
</svg>
