<?xml version="1.0" encoding="iso-8859-1"?>
<!-- Generator: Adobe Illustrator 18.0.0, SVG Export Plug-In . SVG Version: 6.00 Build 0)  -->
<!DOCTYPE svg PUBLIC "-//W3C//DTD SVG 1.1//EN" "http://www.w3.org/Graphics/SVG/1.1/DTD/svg11.dtd">
<svg version="1.1" id="Capa_1" xmlns="http://www.w3.org/2000/svg" xmlns:xlink="http://www.w3.org/1999/xlink" x="0px" y="0px"
	 viewBox="0 0 437.312 437.312" style="enable-background:new 0 0 437.312 437.312;" xml:space="preserve">
<g>
	<g>
		<g>
			<path d="M102.817,247.995c-2.761,0-5-2.239-5-5c0-64.833,52.747-117.579,117.581-117.579c2.761,0,5,2.239,5,5
				c0,2.761-2.239,5-5,5c-59.32,0-107.581,48.26-107.581,107.579C107.817,245.756,105.578,247.995,102.817,247.995z"/>
		</g>
		<g>
			<path d="M231.208,52.621c-2.761,0-5-2.239-5-5c0-4.268-12.042-16.31-16.311-16.31c-2.761,0-5-2.239-5-5s2.239-5,5-5
				c4.268,0,16.311-12.043,16.311-16.311c0-2.761,2.239-5,5-5c2.761,0,5,2.239,5,5c0,4.268,12.043,16.311,16.311,16.311
				c2.761,0,5,2.239,5,5s-2.239,5-5,5c-4.268,0-16.311,12.042-16.311,16.31C236.208,50.383,233.969,52.621,231.208,52.621z
				 M221.589,26.311c3.555,2.641,6.979,6.064,9.62,9.62c2.641-3.555,6.064-6.979,9.62-9.62c-3.555-2.641-6.979-6.065-9.62-9.62
				C228.568,20.247,225.144,23.67,221.589,26.311z"/>
		</g>
		<g>
			<path d="M56.707,174.07c-2.761,0-5-2.239-5-5c0-7.238-17.745-24.982-24.982-24.982c-2.761,0-5-2.239-5-5c0-2.761,2.239-5,5-5
				c7.238,0,24.982-17.745,24.982-24.982c0-2.761,2.239-5,5-5s5,2.239,5,5c0,7.238,17.744,24.982,24.982,24.982c2.761,0,5,2.239,5,5
				c0,2.761-2.239,5-5,5c-7.238,0-24.982,17.744-24.982,24.982C61.707,171.831,59.468,174.07,56.707,174.07z M39.685,139.088
				c6.379,4.243,12.779,10.643,17.022,17.021c4.243-6.378,10.643-12.779,17.021-17.021c-6.378-4.243-12.779-10.643-17.021-17.022
				C52.464,128.445,46.064,134.845,39.685,139.088z"/>
		</g>
		<g>
			<path d="M386.51,211.226c-2.761,0-5-2.239-5-5c0-1.64-2.347-6.295-7.565-11.514c-5.218-5.218-9.874-7.565-11.513-7.565
				c-2.761,0-5-2.239-5-5s2.239-5,5-5c1.64,0,6.295-2.347,11.514-7.564c5.218-5.218,7.565-9.874,7.565-11.513c0-2.761,2.239-5,5-5
				c2.761,0,5,2.239,5,5c0,1.64,2.347,6.295,7.565,11.513c5.218,5.218,9.874,7.564,11.513,7.564c2.761,0,5,2.239,5,5s-2.239,5-5,5
				c-1.639,0-6.295,2.347-11.513,7.565c-5.218,5.218-7.565,9.874-7.565,11.514C391.51,208.987,389.271,211.226,386.51,211.226z
				 M374.63,182.147c4.425,3.153,8.728,7.455,11.88,11.88c3.152-4.425,7.455-8.728,11.88-11.88
				c-4.425-3.152-8.728-7.455-11.88-11.88C383.357,174.693,379.055,178.995,374.63,182.147z"/>
		</g>
		<g>
			<path d="M292.738,107.206c-2.761,0-5-2.239-5-5c0-9.137-21.413-30.551-30.549-30.551c-2.761,0-5-2.239-5-5c0-2.761,2.239-5,5-5
				c9.136,0,30.549-21.414,30.549-30.551c0-2.761,2.239-5,5-5c2.761,0,5,2.239,5,5c0,9.137,21.416,30.551,30.553,30.551
				c2.761,0,5,2.239,5,5c0,2.761-2.239,5-5,5c-9.137,0-30.553,21.414-30.553,30.551C297.738,104.967,295.5,107.206,292.738,107.206z
				 M270.981,66.655c8.205,5.148,16.61,13.553,21.758,21.759c5.148-8.206,13.554-16.611,21.76-21.759
				c-8.206-5.148-16.612-13.553-21.76-21.759C287.591,53.102,279.186,61.507,270.981,66.655z"/>
		</g>
		<path d="M319.978,403.068h-2.829l-14.124-47.946c33.3-26.082,54.738-66.647,54.738-112.127
			c0-78.501-63.865-142.366-142.367-142.366c-78.501,0-142.367,63.865-142.367,142.366c0,45.48,21.438,86.045,54.738,112.127
			l-14.123,47.946h-2.829c-8.628,0-15.647,7.02-15.647,15.647v2.949c0,8.628,7.02,15.647,15.647,15.647h209.161
			c8.628,0,15.648-7.019,15.648-15.647v-2.949C335.626,410.088,328.606,403.068,319.978,403.068z M83.031,242.995
			c0-72.987,59.379-132.366,132.367-132.366s132.367,59.379,132.367,132.366c0,72.987-59.379,132.367-132.367,132.367
			S83.031,315.982,83.031,242.995z M136.36,361.348c22.627,15.16,49.816,24.014,79.038,24.014s56.411-8.854,79.038-24.014
			l12.29,41.72H124.071L136.36,361.348z M325.626,421.665c0,3.114-2.533,5.647-5.647,5.647H110.817
			c-3.114,0-5.647-2.533-5.647-5.647v-2.949c0-3.114,2.533-5.647,5.647-5.647h209.161c3.114,0,5.647,2.533,5.647,5.647V421.665z"/>
	</g>
</g>
<g>
</g>
<g>
</g>
<g>
</g>
<g>
</g>
<g>
</g>
<g>
</g>
<g>
</g>
<g>
</g>
<g>
</g>
<g>
</g>
<g>
</g>
<g>
</g>
<g>
</g>
<g>
</g>
<g>
</g>
</svg>
