<?xml version="1.0" encoding="iso-8859-1"?>
<!-- Generator: Adobe Illustrator 16.0.0, SVG Export Plug-In . SVG Version: 6.00 Build 0)  -->
<!DOCTYPE svg PUBLIC "-//W3C//DTD SVG 1.1//EN" "http://www.w3.org/Graphics/SVG/1.1/DTD/svg11.dtd">
<svg version="1.1" id="Capa_1" xmlns="http://www.w3.org/2000/svg" xmlns:xlink="http://www.w3.org/1999/xlink" x="0px" y="0px"
	 width="31.895px" height="31.894px" viewBox="0 0 31.895 31.894" style="enable-background:new 0 0 31.895 31.894;"
	 xml:space="preserve">
<g>
	<path d="M31.821,4.074C31.511,2.9,30.31,2.199,29.136,2.508c-1.176,0.309-1.877,1.511-1.568,2.686
		c0.146,0.551,0.488,0.996,0.933,1.284c-0.107,1.614-0.588,3.58-2.009,5.299c-4.005-4.569-5.696-6.434-6.479-7.189
		c0.418-0.265,0.771-0.43,1.004-0.523c0.529,0.44,1.254,0.629,1.97,0.44c1.173-0.309,1.875-1.512,1.565-2.685
		c-0.311-1.175-1.514-1.877-2.687-1.569c-0.881,0.232-1.495,0.966-1.618,1.813c-1.656,0.703-7.309,3.832-6.466,13.582
		c-6.191,0.18-9.447,1.819-10.928,2.889c-0.381-0.12-0.798-0.139-1.213-0.03c-1.174,0.312-1.875,1.512-1.567,2.688
		c0.31,1.175,1.512,1.877,2.686,1.565c0.968-0.254,1.614-1.117,1.637-2.069l6.472,6.794c-0.152,0.094-0.301,0.181-0.446,0.257
		c-0.516-0.376-1.19-0.525-1.856-0.353c-1.174,0.31-1.876,1.513-1.567,2.688c0.31,1.175,1.512,1.877,2.687,1.566
		c0.916-0.24,1.541-1.026,1.627-1.918c3.028-1.504,5.535-5.198,4.881-11.935c1.943-0.009,3.734-0.228,5.343-0.651
		c2.406-0.633,4.406-1.716,5.921-3.229c1.911-1.911,3.002-4.414,3.188-7.291C31.578,6.169,32.095,5.111,31.821,4.074z M11.73,26.823
		l-6.753-7.088c0.433-0.235,0.97-0.487,1.632-0.729l6.326,6.303C12.573,25.932,12.158,26.428,11.73,26.823z M13.431,24.284
		l-5.667-5.647c0.871-0.244,1.902-0.461,3.11-0.612l3.242,3.094C14.021,22.38,13.774,23.423,13.431,24.284z M12.283,17.878
		c0.552-0.043,1.135-0.072,1.751-0.086c0.073,0.666,0.111,1.289,0.121,1.872L12.283,17.878z M15.943,15.639
		c-0.141-1.48-0.119-2.781,0.019-3.92l3.165,3.712C18.131,15.575,17.067,15.645,15.943,15.639z M20.354,15.212l-4.154-4.87
		c0.222-0.963,0.531-1.787,0.892-2.491c1.349,1.457,3.855,4.284,5.838,6.54C22.142,14.735,21.281,15.009,20.354,15.212z
		 M23.926,13.896c-3.516-4.011-5.31-6.012-6.267-7.007c0.479-0.703,0.997-1.25,1.491-1.667c0.847,0.837,4.134,4.537,6.602,7.345
		C25.217,13.069,24.604,13.513,23.926,13.896z"/>
</g>
<g>
</g>
<g>
</g>
<g>
</g>
<g>
</g>
<g>
</g>
<g>
</g>
<g>
</g>
<g>
</g>
<g>
</g>
<g>
</g>
<g>
</g>
<g>
</g>
<g>
</g>
<g>
</g>
<g>
</g>
</svg>
