<?xml version="1.0" encoding="utf-8"?>
<!-- Generator: Adobe Illustrator 19.1.0, SVG Export Plug-In . SVG Version: 6.00 Build 0)  -->
<svg version="1.1" id="Layer_1" xmlns="http://www.w3.org/2000/svg" xmlns:xlink="http://www.w3.org/1999/xlink" x="0px" y="0px"
	 viewBox="0 0 64 64" enable-background="new 0 0 64 64" xml:space="preserve">
<path id="DNA" d="M56.6058998,8.329854l-0.0014992-0.0005007c-1.1811981-0.3148994-2.3979988,0.3892002-2.714798,1.5684004
	c-0.2129021,0.7971001,0.0455971,1.6046,0.5948982,2.1471004c-0.2285004,1.2727995-0.5980988,2.5050993-1.1109009,3.6873999
	L36.4020004,6.310854c0.5811005-0.7652001,1.2373123-1.4615002,1.9373093-2.1144004
	c0.1334915,0.0675001,0.2755928,0.1229,0.4256935,0.1632004c0.1909981,0.0512996,0.3853073,0.0766997,0.5781975,0.0766997
	c0.384201,0,0.7635994-0.1011,1.1054001-0.2983999c0.5132027-0.2964001,0.8799019-0.7749,1.0317993-1.3457
	c0.3164024-1.1806-0.3866997-2.3989-1.5673981-2.7163h-0.0004997c-0.5727005-0.1538-1.171402-0.0747-1.6836014,0.2227
	c-0.5131989,0.2964-0.8793983,0.7749001-1.0312004,1.3457c-0.0831985,0.3109-0.0917969,0.6233-0.0436974,0.9220999
	c-6.4678001,5.8727999-8.5126915,16.0814991-5.4744015,27.2952003c-0.2665997,0.0438995-0.5243988,0.0995998-0.7943993,0.1390991
	c-12.9785995,1.8992004-19.8339996,11.927-22.3633003,16.5950985c-0.5645003-0.1467972-1.1552005-0.0684967-1.661592,0.2247009
	c-0.5132084,0.296402-0.8799081,0.7745018-1.0332084,1.346199c-0.1533999,0.5713005-0.0747914,1.1690025,0.2211003,1.6826019
	c0.2963996,0.5126991,0.7744999,0.8798981,1.3452997,1.0331993c0.1919003,0.0517998,0.3862,0.0772018,0.5791001,0.0772018
	c0.3842001,0,0.7636003-0.1016006,1.1054001-0.2988014c0.5121994-0.2958984,0.8788996-0.7734985,1.0323086-1.344799
	c0.1180916-0.4397011,0.0963917-0.8934021-0.0533085-1.3132019c0.3343077-0.6310997,0.7732-1.4035988,1.3218994-2.2700996
	l18.1234093,11.9664001c-0.4425087,0.7447014-0.8547096,1.3804016-1.1975098,1.8783989
	c-0.9326,0.0493011-1.7716999,0.6808014-2.0265999,1.6311035c-0.3164005,1.1796989,0.3866997,2.3974991,1.5678997,2.7157974
	c0.1914005,0.0517998,0.3838005,0.0762024,0.5727997,0.0762024c0.9790001,0,1.877409-0.6543007,2.1430016-1.6445007
	c0.1862984-0.6944008,0.0124989-1.3969994-0.3970013-1.9265022c2.8549995-4.1728973,8.9570007-15.1808968,4.4317017-27.8885002
	c-0.1342926-0.3773003-0.243103-0.7503986-0.3655014-1.1257992c12.0046005-2.6033993,20.4196014-9.6936989,22.1776009-18.7600994
	c0.824398-0.1436996,1.5340996-0.7490997,1.7649994-1.6097002C58.4901009,9.8645535,57.7870026,8.6462536,56.6058998,8.329854z
	 M42.0199013,26.6936531c-0.0524979-0.0431995-0.0953979-0.0951996-0.1581993-0.1278992l-9.5262985-4.9668007
	c-0.1192017-2.3085995,0.0056-4.5196991,0.3839989-6.5869999l14.5876007,8.3990002
	C45.7503128,24.6470547,43.9789009,25.7484531,42.0199013,26.6936531z M21.2924023,35.6682549l12.5776005,7.1517982
	c0.0890007,0.0508003,0.1828995,0.0823021,0.2780991,0.103302c-0.0988998,2.1713982-0.4561005,4.2234993-0.9623985,6.1128998
	L17.2196026,38.8899536c-0.0380993-0.0242004-0.0811005-0.0280991-0.1208992-0.0465012
	c1.2319984-1.1320992,2.6160984-2.2232971,4.1682987-3.1973991C21.2769032,35.652153,21.2821026,35.6623535,21.2924023,35.6682549z
	 M12.4955025,44.0737534c0.8970003-1.2560997,1.9863005-2.6121979,3.2858086-3.9528999
	c0.0764914,0.1795006,0.1890917,0.3450012,0.3660908,0.4575005L32.5840034,51.022953
	c-0.6300011,1.8594017-1.3741016,3.5214996-2.1046925,4.924099L12.4955025,44.0737534z M32.7128029,33.2121544
	c0.9145088,2.5687981,1.3429985,5.0750999,1.4397011,7.4682999L23.283802,34.5003548
	c2.3113003-1.1819992,4.9337997-2.0881996,7.8913994-2.521101c0.3660011-0.0534,0.7166004-0.1278992,1.0769005-0.1893005
	C32.4037018,32.263855,32.5431023,32.7357521,32.7128029,33.2121544z M32.5443115,23.9634533l7.1577911,3.7319012
	c-1.8825989,0.7388-3.9046021,1.3456993-6.0516014,1.8024998C33.1320038,27.6147537,32.7646027,25.7651539,32.5443115,23.9634533z
	 M48.9055023,22.0232544l-15.7251015-9.0540009c0.4980011-1.8060999,1.2060013-3.4768,2.1063995-4.9896998l17.1917,9.5437012
	C51.545311,19.1407528,50.3488007,20.6504536,48.9055023,22.0232544z"/>
<g>
</g>
<g>
</g>
<g>
</g>
<g>
</g>
<g>
</g>
<g>
</g>
<g>
</g>
<g>
</g>
<g>
</g>
<g>
</g>
<g>
</g>
<g>
</g>
<g>
</g>
<g>
</g>
<g>
</g>
</svg>
