<?xml version="1.0" encoding="iso-8859-1"?>
<!-- Generator: Adobe Illustrator 17.1.0, SVG Export Plug-In . SVG Version: 6.00 Build 0)  -->
<!DOCTYPE svg PUBLIC "-//W3C//DTD SVG 1.1//EN" "http://www.w3.org/Graphics/SVG/1.1/DTD/svg11.dtd">
<svg version="1.1" id="Capa_1" xmlns="http://www.w3.org/2000/svg" xmlns:xlink="http://www.w3.org/1999/xlink" x="0px" y="0px"
	 viewBox="0 0 481.348 481.348" style="enable-background:new 0 0 481.348 481.348;" xml:space="preserve">
<g>
	<path d="M451.422,466.348h-50.975V450.98c0-35.193-9.385-62.355-27.895-80.733c-1.477-1.467-2.978-2.839-4.493-4.128
		c1.696-1.941,3.158-4.249,4.378-6.712c1.112,1.109,2.173,2.032,3.094,2.724c5.26,3.95,14.629,5.749,21.108,5.749
		c9.104,0,13.493-3.301,15.573-6.069c4.449-5.924,2.599-14.276,0.263-20.24c-1.994-5.092-5.715-11.727-10.176-15.077
		c-0.975-0.732-2.141-1.475-3.436-2.191c4.984-4.637,8.607-10.43,7.768-16.343c-1.351-9.503-13.836-15.506-23.376-17.445V164.216
		c0-0.824-0.017-1.639-0.027-2.458c37.853-17.7,51.835-54.157,52.427-55.742c0.015-0.04,0.023-0.081,0.038-0.121
		c0.052-0.147,0.099-0.296,0.142-0.446c0.025-0.088,0.051-0.176,0.072-0.265c0.033-0.135,0.06-0.27,0.085-0.405
		c0.02-0.103,0.042-0.204,0.057-0.307c0.017-0.115,0.025-0.232,0.036-0.347c0.029-0.293,0.043-0.585,0.037-0.875
		c-0.001-0.043,0.002-0.087,0.001-0.13c-0.005-0.122-0.018-0.241-0.029-0.362c-0.009-0.112-0.017-0.225-0.03-0.337
		c-0.015-0.106-0.035-0.21-0.054-0.315c-0.022-0.126-0.044-0.252-0.072-0.378c-0.022-0.095-0.048-0.187-0.073-0.28
		c-0.036-0.134-0.074-0.268-0.117-0.399c-0.029-0.087-0.061-0.172-0.092-0.257c-0.05-0.133-0.102-0.266-0.158-0.396
		c-0.038-0.087-0.078-0.172-0.119-0.257c-0.059-0.121-0.12-0.24-0.186-0.359c-0.051-0.093-0.103-0.185-0.159-0.275
		c-0.063-0.103-0.128-0.203-0.196-0.304c-0.067-0.101-0.137-0.2-0.21-0.298c-0.028-0.037-0.052-0.076-0.08-0.113
		c-2.628-3.379-15.111-14.401-65.373-14.401c-10.862,0-29.876-2.108-35.172-16.229C317.044,22.932,299.84,0,282.867,0
		c-16.413,0-34.775,7.405-42.193,10.731C233.255,7.405,214.894,0,198.48,0c-16.973,0-34.177,22.932-51.134,68.157
		c-5.296,14.122-24.31,16.23-35.172,16.23c-22.242,0-59.921,2.069-66.163,15.671c-0.284,0.572-0.495,1.178-0.627,1.805
		c-0.015,0.072-0.027,0.144-0.041,0.216c-0.049,0.276-0.086,0.556-0.104,0.837c-0.002,0.029-0.007,0.059-0.008,0.088
		c-0.017,0.311-0.012,0.625,0.012,0.939c0.005,0.061,0.014,0.119,0.02,0.18c0.024,0.246,0.061,0.493,0.11,0.74
		c0.017,0.08,0.031,0.16,0.05,0.239c0.062,0.263,0.137,0.524,0.229,0.784c0.013,0.035,0.021,0.072,0.034,0.107
		c0.003,0.007,0.004,0.014,0.007,0.021c0.599,1.604,14.585,38.049,52.426,55.74c-0.01,0.819-0.026,1.635-0.026,2.46V382.52
		c0,0.281,0.019,0.559,0.049,0.833c-11.434,17.362-17.24,40.009-17.24,67.628v15.367H29.926c-4.143,0-7.5,3.357-7.5,7.5
		c0,4.143,3.357,7.5,7.5,7.5h421.496c4.143,0,7.5-3.357,7.5-7.5C458.922,469.705,455.564,466.348,451.422,466.348z M385.446,450.98
		v15.367h-37.659v-96.09c4.76,2.641,9.623,6.094,14.196,10.635C377.553,396.35,385.446,419.931,385.446,450.98z M113.093,164.216
		c0-8.196,0.556-16.085,1.64-23.542c6.08,1.648,12.646,3.225,19.724,4.691v90.656c0,0.36,0.026,0.72,0.078,1.076
		c0.131,0.907,3.387,22.474,17.819,44.884c9.258,14.375,24.462,30.956,48.52,40.897c-0.06,0.38-0.1,0.767-0.1,1.163v22.734h-37.518
		c-1.209-0.02-27.426,0.048-50.163,19.517V164.216z M240.674,155.006c36.394,0,66.488-2.722,91.218-6.846v87.257
		c-0.529,3.06-3.936,20.471-15.509,38.441c-0.963,1.495-1.957,2.946-2.975,4.364l-23.983-18.015
		c-0.738-0.554-1.548-0.943-2.384-1.189c-0.1-0.124-0.194-0.249-0.303-0.368c-2.792-3.061-7.535-3.276-10.596-0.488
		c-0.042,0.038-4.586,3.954-13.524,7.026c-3.917,1.347-6.002,5.613-4.655,9.53c1.068,3.11,3.978,5.064,7.092,5.064
		c0.809,0,1.631-0.132,2.438-0.409c6.104-2.099,10.689-4.539,13.81-6.507l22.426,16.844c-15.932,16.086-36.822,25.077-62.357,26.778
		h-1.395c-32.767-2.185-57.904-16.371-74.713-42.169c-11.735-18.011-15.267-35.843-15.808-38.913V148.16
		C174.185,152.284,204.28,155.006,240.674,155.006z M215.773,354.274v-26.469c7.174,1.836,14.973,3.117,23.472,3.668
		c0.162,0.011,0.323,0.016,0.485,0.016h1.887c0.162,0,0.323-0.005,0.485-0.016c8.499-0.551,16.298-1.832,23.472-3.668v26.469
		c0,4.143,3.357,7.5,7.5,7.5h32.07c-2.959,32.977-30.736,58.913-64.471,58.913s-61.512-25.936-64.471-58.913h32.07
		C212.416,361.774,215.773,358.417,215.773,354.274z M175.84,402.288c6.358,8.869,14.475,16.392,23.855,22.034H175.84V402.288z
		 M305.868,401.781v22.541h-24.215C291.211,418.573,299.458,410.871,305.868,401.781z M318.229,346.774c-0.035,0-0.064,0-0.083,0
		h-37.571V324.04c0-0.396-0.04-0.783-0.1-1.163c11.885-4.91,21.604-11.442,29.516-18.527c-0.772,1.398-1.45,2.922-2.024,4.57
		c-2.256,6.474-2.416,13.271-1.868,17.123c0.803,5.642,5.977,14.972,12.76,20.74C318.567,346.776,318.349,346.774,318.229,346.774z
		 M330.105,336.569c-3.1-1.804-8.686-9.33-9.156-12.638c-0.261-1.835-0.17-6.193,1.183-10.077c0.73-2.098,2.025-4.658,4.042-4.944
		c0.154-0.022,0.299-0.033,0.442-0.033c3.682,0,8.064,8.105,8.761,13.003C335.846,325.189,332.579,333.973,330.105,336.569z
		 M352.292,299.357c-0.317,0.045-1.005,0.121-2.051,0.121c-5.12,0-12.477-1.857-12.972-5.345c-0.562-3.947,8.242-8.531,12.972-9.204
		c0.025-0.003,0.165-0.02,0.446-0.02c4.383,0,11.897,3.08,14.24,5.296C363.119,293.306,355.597,298.888,352.292,299.357z
		 M348.647,333.772c0.731-2.098,2.025-4.659,4.041-4.945c0.152-0.022,0.301-0.033,0.442-0.033c3.682,0,8.065,8.105,8.762,13.004
		c0.47,3.308-2.797,12.091-5.271,14.689c-3.101-1.806-8.686-9.33-9.156-12.639C347.204,342.013,347.295,337.654,348.647,333.772z
		 M366.619,140.672c1.084,7.459,1.636,15.346,1.636,23.544v110.394c-6.023-3.088-12.995-4.7-17.567-4.7
		c-0.9,0-1.761,0.057-2.558,0.171c-4.569,0.649-10.747,2.896-15.925,6.61c11.709-20.4,14.488-38.759,14.608-39.594
		c0.052-0.356,0.078-0.716,0.078-1.076v-90.656C353.971,143.898,360.539,142.32,366.619,140.672z M160.84,361.877v69.945
		c0,4.143,3.357,7.5,7.5,7.5h145.028c4.143,0,7.5-3.357,7.5-7.5V361.92c2.567,0.222,6.809,0.789,11.919,2.211v102.217H148.922
		V363.961C154.086,362.566,158.334,362.06,160.84,361.877z M396.639,352.881c-5.466,0-10.86-1.812-12.1-2.743
		c-1.482-1.113-4.501-4.259-6.29-7.962c-0.967-2-1.861-4.726-0.639-6.354c0.283-0.378,1.036-1.38,3.838-1.38
		c4.214,0,9.585,2.349,11.843,4.045c2.661,1.999,6.544,10.465,6.657,14.074C399.277,352.722,398.192,352.881,396.639,352.881z
		 M378.81,319.273c-0.317,0.045-1.005,0.121-2.051,0.121c-5.12,0-12.478-1.857-12.973-5.345c-0.287-2.017,1.811-3.973,3.622-5.26
		c3.352-2.381,7.513-3.682,9.349-3.942c0.025-0.004,0.165-0.021,0.447-0.021c4.383,0,11.897,3.08,14.24,5.295
		C389.637,313.223,382.115,318.804,378.81,319.273z M382.303,145.369c-0.314-3.069-0.708-6.084-1.18-9.04
		c9.259-3.052,17.107-6.212,23.682-9.261C399.031,133.555,391.609,140.125,382.303,145.369z M112.175,99.388
		c25.459,0,42.938-9.221,49.217-25.964C176.442,33.283,191.168,15,198.48,15c17.053,0,38.422,10.509,38.839,10.716
		c0.067,0.034,0.138,0.059,0.205,0.09c0.078,0.036,0.157,0.07,0.237,0.104c0.152,0.065,0.307,0.126,0.462,0.18
		c0.065,0.022,0.132,0.043,0.198,0.063c0.17,0.054,0.34,0.104,0.512,0.145c0.058,0.014,0.115,0.025,0.174,0.037
		c0.179,0.039,0.357,0.072,0.537,0.098c0.063,0.009,0.125,0.014,0.188,0.021c0.174,0.02,0.347,0.035,0.521,0.043
		c0.079,0.004,0.159,0.002,0.238,0.004c0.156,0.001,0.313,0.002,0.468-0.007c0.102-0.005,0.203-0.016,0.304-0.024
		c0.135-0.013,0.27-0.025,0.403-0.045c0.115-0.017,0.23-0.041,0.345-0.063c0.122-0.024,0.243-0.049,0.363-0.078
		c0.117-0.029,0.233-0.063,0.35-0.098c0.12-0.036,0.239-0.073,0.358-0.115c0.109-0.039,0.218-0.082,0.326-0.127
		c0.124-0.051,0.247-0.104,0.368-0.16c0.049-0.023,0.099-0.04,0.148-0.064C244.238,25.611,265.731,15,282.867,15
		c7.313,0,22.038,18.283,37.089,58.425c6.279,16.742,23.758,25.963,49.217,25.963c24.146,0,38.016,2.713,45.62,5.167
		c-6.059,3.933-15.657,9.211-29.671,14.462c-46.295,17.348-104.104,20.989-144.448,20.989c-40.344,0-98.153-3.642-144.448-20.989
		c-14.526-5.443-24.309-10.916-30.317-14.882C72.922,101.924,86.553,99.388,112.175,99.388z M76.659,127.123
		c6.549,3.031,14.359,6.172,23.562,9.205c-0.473,2.957-0.862,5.977-1.178,9.048C89.809,140.158,82.428,133.598,76.659,127.123z
		 M95.901,450.98c0-48.922,19.861-71.011,38.02-80.988v96.355h-38.02V450.98z"/>
	<circle cx="187.437" cy="187.686" r="8.951"/>
	<circle cx="293.911" cy="187.686" r="8.951"/>
	<path d="M239.374,240.067h2.6c8.026,0,14.556-6.529,14.556-14.556c0-4.143-3.358-7.5-7.5-7.5c-3.993,0-7.257,3.12-7.487,7.056
		h-1.736c-0.23-3.936-3.494-7.056-7.487-7.056c-4.142,0-7.5,3.357-7.5,7.5C224.818,233.538,231.348,240.067,239.374,240.067z"/>
</g>
<g>
</g>
<g>
</g>
<g>
</g>
<g>
</g>
<g>
</g>
<g>
</g>
<g>
</g>
<g>
</g>
<g>
</g>
<g>
</g>
<g>
</g>
<g>
</g>
<g>
</g>
<g>
</g>
<g>
</g>
</svg>
