<?xml version="1.0" encoding="iso-8859-1"?>
<!-- Generator: Adobe Illustrator 17.1.0, SVG Export Plug-In . SVG Version: 6.00 Build 0)  -->
<!DOCTYPE svg PUBLIC "-//W3C//DTD SVG 1.1//EN" "http://www.w3.org/Graphics/SVG/1.1/DTD/svg11.dtd">
<svg version="1.1" id="Capa_1" xmlns="http://www.w3.org/2000/svg" xmlns:xlink="http://www.w3.org/1999/xlink" x="0px" y="0px"
	 viewBox="0 0 467.66 467.66" style="enable-background:new 0 0 467.66 467.66;" xml:space="preserve">
<g>
	<path d="M444.578,452.66h-50.975v-15.367c0-35.193-9.385-62.355-27.895-80.733c-23.587-23.419-53.217-23.482-54.406-23.474H273.73
		v-22.734c0-0.396-0.04-0.783-0.1-1.163c5.075-2.097,9.746-4.495,14.06-7.1c14.22,7.144,27.917,9.702,40.233,9.702
		c29.803-0.002,51.496-14.939,52.766-15.833c1.995-1.405,3.182-3.692,3.182-6.132V140.818c0-49.166-16.814-86.598-49.973-111.256
		C308.262,10.499,272.724,0,233.83,0s-74.432,10.499-100.068,29.563c-33.159,24.658-49.973,62.09-49.973,111.256v149.009
		c0,2.44,1.187,4.727,3.181,6.132c1.271,0.894,22.959,15.834,52.767,15.833c12.313-0.001,26.017-2.56,40.233-9.702
		c4.314,2.604,8.984,5.003,14.06,7.1c-0.06,0.38-0.1,0.767-0.1,1.163v22.734h-37.518c-1.286-0.017-30.869,0.051-54.46,23.474
		c-18.51,18.377-27.895,45.539-27.895,80.733v15.367H23.082c-4.143,0-7.5,3.357-7.5,7.5c0,4.143,3.357,7.5,7.5,7.5h421.496
		c4.143,0,7.5-3.357,7.5-7.5C452.078,456.018,448.721,452.66,444.578,452.66z M311.355,348.087c0.002,0,0.005,0,0.009,0
		c0.591,0,24.707,0.186,43.775,19.118c15.569,15.457,23.463,39.038,23.463,70.088v15.367H244.789l37.126-18.911
		c2.356-1.2,3.906-3.553,4.079-6.19l1.26-19.166l22.463-12.651c2.949-1.661,4.42-5.093,3.591-8.374l-9.934-39.28H311.355z
		 M175.597,361.391l36.589,69.42l-16.97-8.643l-0.898-18.678c-0.124-2.576-1.563-4.908-3.811-6.175l-21.004-11.829L175.597,361.391z
		 M297.359,385.485l-21.004,11.829c-2.207,1.243-3.637,3.516-3.803,6.043l-1.246,18.962l-16.615,8.464l36.574-69.393
		L297.359,385.485z M281.321,348.087l-47.89,90.862l-47.891-90.862h15.889h64.801H281.321z M158.42,260.633
		c-11.735-18.011-15.267-35.843-15.808-38.913v-82.058c2.791,0.131,6.207,0.232,10.141,0.232c15.138,0,38.341-1.49,62.912-8.585
		c25.304-7.307,46.755-18.959,63.929-34.706c6.215,11.86,19.557,30.315,45.454,40.303v20.545
		c-6.394-14.575-20.955-24.785-37.863-24.785c-22.789,0-41.329,18.54-41.329,41.329c0,22.789,18.54,41.33,41.329,41.33
		c8.69,0,16.759-2.702,23.421-7.303l14.326,14.326c-0.835,4.39-4.595,21.253-15.691,38.285
		c-16.809,25.798-41.946,39.984-74.713,42.169h-1.395C200.366,300.617,175.229,286.431,158.42,260.633z M321.213,197.414
		c1.486-2.153,2.773-4.454,3.835-6.876v10.711L321.213,197.414z M305.778,192.587c-0.073,0.073-0.138,0.153-0.207,0.23
		c-4.749,4.641-11.238,7.508-18.387,7.508c-14.518,0-26.329-11.812-26.329-26.33c0-14.518,11.811-26.329,26.329-26.329
		c14.518,0,26.33,11.812,26.33,26.329c0,7.148-2.868,13.637-7.508,18.387C305.932,192.45,305.852,192.514,305.778,192.587z
		 M98.789,285.678V140.818c0-44.164,14.778-77.546,43.924-99.22C165.779,24.446,198.139,15,233.83,15s68.051,9.446,91.117,26.599
		c29.146,21.674,43.924,55.056,43.924,99.22v144.831c-9.055,5.156-36.295,17.925-67.127,6.243
		c8.797-7.596,15.455-15.912,20.406-23.6c8.133-12.629,12.717-24.988,15.191-33.535l8.468,8.468
		c1.465,1.464,3.385,2.196,5.304,2.196c1.919,0,3.839-0.732,5.304-2.196c2.929-2.93,2.929-7.678,0-10.607l-16.369-16.369V131.6
		c0-3.261-2.107-6.148-5.213-7.143c-35.749-11.449-45.126-41.776-45.499-43.032c-0.749-2.602-2.843-4.599-5.478-5.223
		c-2.637-0.624-5.402,0.22-7.238,2.209c-16.036,17.359-53.451,46.482-123.867,46.482c-10.254,0-16.705-0.735-16.764-0.742
		c-2.134-0.257-4.261,0.421-5.86,1.844c-1.601,1.423-2.517,3.463-2.517,5.604v90.733c0,0.36,0.026,0.72,0.078,1.076
		c0.131,0.907,3.387,22.474,17.819,44.884c4.952,7.689,11.613,16.008,20.413,23.606C134.892,303.725,107.85,290.915,98.789,285.678z
		 M232.401,317.786c0.162,0.011,0.323,0.016,0.485,0.016h1.887c0.162,0,0.323-0.005,0.485-0.016
		c8.499-0.551,16.298-1.832,23.472-3.668v18.969H208.93v-18.969C216.104,315.954,223.902,317.235,232.401,317.786z M89.058,437.293
		c0-88.178,64.527-89.205,67.301-89.206h7.13l-9.934,39.28c-0.829,3.281,0.642,6.713,3.591,8.374l22.389,12.609l0.908,18.885
		c0.129,2.688,1.689,5.102,4.087,6.322l37.504,19.103H89.058V437.293z"/>
	<circle cx="180.593" cy="173.998" r="8.952"/>
	<circle cx="287.066" cy="173.998" r="8.951"/>
	<path d="M232.53,222.38h2.6c8.026,0,14.556-6.529,14.556-14.556c0-4.143-3.357-7.5-7.5-7.5c-3.993,0-7.257,3.12-7.487,7.056h-1.736
		c-0.23-3.936-3.494-7.056-7.487-7.056c-4.142,0-7.5,3.357-7.5,7.5C217.975,215.851,224.504,222.38,232.53,222.38z"/>
	<path d="M307.083,423.986c0,4.143,3.357,7.5,7.5,7.5h23.055c4.143,0,7.5-3.357,7.5-7.5c0-4.142-3.357-7.5-7.5-7.5h-23.055
		C310.44,416.486,307.083,419.844,307.083,423.986z"/>
	<path d="M280.324,252.724c2.601-3.224,2.095-7.945-1.13-10.546c-3.225-2.601-7.947-2.096-10.546,1.13
		c-0.08,0.099-9.089,9.938-32.971,9.938c-24.794,0-36.889-10.282-37.493-10.811c-3.062-2.753-7.775-2.521-10.553,0.527
		c-2.791,3.061-2.572,7.805,0.489,10.595c0.657,0.6,16.468,14.688,47.557,14.688C266.903,268.246,279.043,254.313,280.324,252.724z"
		/>
</g>
<g>
</g>
<g>
</g>
<g>
</g>
<g>
</g>
<g>
</g>
<g>
</g>
<g>
</g>
<g>
</g>
<g>
</g>
<g>
</g>
<g>
</g>
<g>
</g>
<g>
</g>
<g>
</g>
<g>
</g>
</svg>
