<?xml version="1.0" encoding="iso-8859-1"?>
<!-- Generator: Adobe Illustrator 18.0.0, SVG Export Plug-In . SVG Version: 6.00 Build 0)  -->
<!DOCTYPE svg PUBLIC "-//W3C//DTD SVG 1.1//EN" "http://www.w3.org/Graphics/SVG/1.1/DTD/svg11.dtd">
<svg version="1.1" id="Capa_1" xmlns="http://www.w3.org/2000/svg" xmlns:xlink="http://www.w3.org/1999/xlink" x="0px" y="0px"
	 viewBox="0 0 365.695 365.695" style="enable-background:new 0 0 365.695 365.695;" xml:space="preserve">
<g>
	<path d="M346.948,265.359h-4.094V73.404c0-5.832-4.724-10.557-10.556-10.557H33.396c-5.831,0-10.558,4.725-10.558,10.557v191.955
		h-4.092C8.393,265.359,0,273.752,0,284.102c0,10.354,8.393,18.746,18.747,18.746h328.201c10.355,0,18.747-8.393,18.747-18.746
		C365.695,273.752,357.304,265.359,346.948,265.359z M192.741,289.547h-19.788c-3.007,0-5.442-2.439-5.442-5.445
		c0-3.004,2.436-5.44,5.442-5.44h19.788c3.007,0,5.444,2.436,5.444,5.44C198.186,287.108,195.748,289.547,192.741,289.547z
		 M322.407,270.386H43.287V83.295h279.12V270.386z"/>
	<path d="M119.351,145.959c-3.798,0-6.878,3.079-6.878,6.878v21.785H79.905v-21.785c0-3.799-3.08-6.878-6.878-6.878
		s-6.878,3.079-6.878,6.878v59.629c0,3.799,3.08,6.878,6.878,6.878s6.878-3.079,6.878-6.878v-24.088h32.568v24.088
		c0,3.799,3.08,6.878,6.878,6.878c3.798,0,6.878-3.079,6.878-6.878v-59.629C126.229,149.038,123.149,145.959,119.351,145.959z"/>
	<path d="M264.44,219.736h28.408c3.798,0,6.878-3.079,6.878-6.878c0-3.799-3.08-6.878-6.878-6.878h-21.53V153.23
		c0-3.799-3.08-6.878-6.878-6.878c-3.798,0-6.878,3.079-6.878,6.878v59.629C257.562,216.657,260.641,219.736,264.44,219.736z"/>
	<path d="M193.21,219.735c3.798,0,6.878-3.079,6.878-6.878v-31.057l12.201,23.943c1.174,2.305,3.542,3.756,6.128,3.756
		c0.003,0,0.006,0,0.01,0c2.59-0.004,4.958-1.462,6.127-3.772l12.078-23.87v31c0,3.799,3.08,6.878,6.878,6.878
		c3.798,0,6.878-3.079,6.878-6.878v-59.629c0-3.799-3.179-6.878-6.977-6.878c-2.593,0-4.966,1.459-6.137,3.772l-18.878,37.308
		l-19.018-37.324c-1.174-2.305-3.58-3.756-6.167-3.756c-3.798,0-6.878,3.079-6.878,6.878v59.629
		C186.332,216.656,189.411,219.735,193.21,219.735z"/>
	<path d="M137.641,160.2h11.217v51.78c0,3.799,3.079,6.878,6.878,6.878c3.798,0,6.877-3.079,6.877-6.878V160.2h12.944
		c3.798,0,6.878-3.079,6.878-6.878s-3.08-6.878-6.878-6.878h-37.917c-3.798,0-6.878,3.079-6.878,6.878S133.842,160.2,137.641,160.2z
		"/>
</g>
<g>
</g>
<g>
</g>
<g>
</g>
<g>
</g>
<g>
</g>
<g>
</g>
<g>
</g>
<g>
</g>
<g>
</g>
<g>
</g>
<g>
</g>
<g>
</g>
<g>
</g>
<g>
</g>
<g>
</g>
</svg>
