<?xml version='1.0' encoding='iso-8859-1'?>
<svg version="1.1" xmlns="http://www.w3.org/2000/svg" viewBox="0 0 470 470" xmlns:xlink="http://www.w3.org/1999/xlink" enable-background="new 0 0 470 470">
  <g>
    <circle cx="203.787" cy="406.467" r="7.5"/>
    <circle cx="302.787" cy="318.467" r="7.5"/>
    <circle cx="273.787" cy="293.578" r="7.5"/>
    <path d="m351.651,275.654c-7.971-19.243-22.958-34.231-42.202-42.202-9.536-3.95-19.564-5.953-29.806-5.953-12.997,0-25.788,3.288-37.144,9.423v-26.001c0-4.142-3.358-7.5-7.5-7.5s-7.5,3.358-7.5,7.5v26.001c-11.356-6.135-24.147-9.423-37.144-9.423-10.242,0-20.27,2.003-29.806,5.953-19.243,7.971-34.231,22.958-42.202,42.202-7.971,19.243-7.971,40.439 0,59.682l43.253,104.419c7.61,18.373 25.378,30.245 45.264,30.245 6.436,0 12.736-1.258 18.726-3.739 3.339-1.383 6.487-3.11 9.41-5.161 2.923,2.051 6.07,3.778 9.41,5.161 5.989,2.481 12.29,3.739 18.726,3.739 19.886,0 37.654-11.872 45.264-30.245l43.251-104.419c7.971-19.243 7.972-40.439 5.68434e-14-59.682zm-13.858,53.942l-43.251,104.419c-5.281,12.748-17.608,20.985-31.406,20.985-4.457,0-8.826-0.874-12.986-2.597-3.734-1.546-7.119-3.709-10.06-6.427-1.437-1.328-3.264-1.992-5.09-1.992s-3.654,0.664-5.09,1.992c-2.941,2.718-6.325,4.88-10.06,6.427-4.161,1.724-8.53,2.597-12.986,2.597-13.798,0-26.125-8.237-31.406-20.985l-43.251-104.419c-6.438-15.542-6.438-32.66 0-48.202s18.542-27.646 34.084-34.083c7.707-3.192 15.804-4.811 24.065-4.811 14.483,0 28.654,5.055 39.903,14.232 0.341,0.273 0.681,0.502 1.038,0.706 0.024,0.014 0.047,0.03 0.071,0.043 0.337,0.187 0.692,0.343 1.059,0.477 0.054,0.02 0.107,0.041 0.161,0.059 0.35,0.119 0.712,0.213 1.083,0.279 0.062,0.011 0.125,0.019 0.187,0.029 0.373,0.057 0.753,0.096 1.143,0.096s0.769-0.039 1.143-0.096c0.063-0.01 0.125-0.017 0.187-0.029 0.372-0.067 0.733-0.16 1.083-0.279 0.054-0.018 0.107-0.039 0.161-0.059 0.366-0.134 0.722-0.29 1.059-0.477 0.024-0.013 0.047-0.03 0.071-0.043 0.357-0.203 0.697-0.432 1.014-0.689 11.273-9.194 25.444-14.249 39.927-14.249 8.262,0 16.359,1.619 24.065,4.811 15.542,6.438 27.646,18.542 34.084,34.083s6.436,32.66-0.002,48.202z"/>
    <path d="m119.895,238.421c4.142,0 7.5-3.358 7.5-7.5v-223.421c0-4.142-3.358-7.5-7.5-7.5s-7.5,3.358-7.5,7.5v223.421c0,4.142 3.357,7.5 7.5,7.5z"/>
    <path d="m177.447,123.337c4.142,0 7.5-3.358 7.5-7.5v-108.337c0-4.142-3.358-7.5-7.5-7.5s-7.5,3.358-7.5,7.5v108.337c0,4.142 3.358,7.5 7.5,7.5z"/>
    <path d="m177.447,213.337c4.142,0 7.5-3.358 7.5-7.5v-60c0-4.142-3.358-7.5-7.5-7.5s-7.5,3.358-7.5,7.5v60c0,4.142 3.358,7.5 7.5,7.5z"/>
    <path d="m235,188.421c4.142,0 7.5-3.358 7.5-7.5v-173.421c0-4.142-3.358-7.5-7.5-7.5s-7.5,3.358-7.5,7.5v173.421c0,4.142 3.358,7.5 7.5,7.5z"/>
    <path d="m292.553,213.338c4.142,0 7.5-3.358 7.5-7.5v-198.338c0-4.142-3.358-7.5-7.5-7.5s-7.5,3.358-7.5,7.5v198.338c0,4.142 3.358,7.5 7.5,7.5z"/>
    <path d="m350.105,75c4.142,0 7.5-3.358 7.5-7.5v-60c0-4.142-3.358-7.5-7.5-7.5s-7.5,3.358-7.5,7.5v60c0,4.142 3.358,7.5 7.5,7.5z"/>
    <path d="m350.105,238.421c4.142,0 7.5-3.358 7.5-7.5v-133.421c0-4.142-3.358-7.5-7.5-7.5s-7.5,3.358-7.5,7.5v133.421c0,4.142 3.358,7.5 7.5,7.5z"/>
  </g>
</svg>
