<?xml version='1.0' encoding='iso-8859-1'?>
<svg version="1.1" xmlns="http://www.w3.org/2000/svg" viewBox="0 0 470 470" xmlns:xlink="http://www.w3.org/1999/xlink" enable-background="new 0 0 470 470">
  <g>
    <path d="m462.5,197.5c4.143,0 7.5-3.358 7.5-7.5s-3.357-7.5-7.5-7.5c-96.495,0-175-78.505-175-175 0-4.142-3.357-7.5-7.5-7.5s-7.5,3.358-7.5,7.5c0,104.767 85.233,190 190,190z"/>
    <path d="m7.5,272.5c-4.143,0-7.5,3.358-7.5,7.5s3.357,7.5 7.5,7.5c96.495,0 175,78.505 175,175 0,4.142 3.357,7.5 7.5,7.5s7.5-3.358 7.5-7.5c0-104.767-85.233-190-190-190z"/>
    <path d="M250,318.333c4.143,0,7.5-3.358,7.5-7.5s-3.357-7.5-7.5-7.5h-7.5V166.667h7.5c4.143,0,7.5-3.358,7.5-7.5   s-3.357-7.5-7.5-7.5h-7.5V90.833h7.5c4.143,0,7.5-3.358,7.5-7.5s-3.357-7.5-7.5-7.5h-7.5V15h7.5c4.143,0,7.5-3.358,7.5-7.5   S254.143,0,250,0h-30c-4.143,0-7.5,3.358-7.5,7.5s3.357,7.5,7.5,7.5h7.5v60.833H220c-4.143,0-7.5,3.358-7.5,7.5s3.357,7.5,7.5,7.5   h7.5v60.833H220c-4.143,0-7.5,3.358-7.5,7.5s3.357,7.5,7.5,7.5h7.5V227.5h-60.833V220c0-4.142-3.357-7.5-7.5-7.5   s-7.5,3.358-7.5,7.5v7.5H90.833V220c0-4.142-3.357-7.5-7.5-7.5s-7.5,3.358-7.5,7.5v7.5H15V220c0-4.142-3.357-7.5-7.5-7.5   S0,215.858,0,220v30c0,4.142,3.357,7.5,7.5,7.5s7.5-3.358,7.5-7.5v-7.5h60.833v7.5c0,4.142,3.357,7.5,7.5,7.5s7.5-3.358,7.5-7.5   v-7.5h60.834v7.5c0,4.142,3.357,7.5,7.5,7.5s7.5-3.358,7.5-7.5v-7.5H227.5v60.833H220c-4.143,0-7.5,3.358-7.5,7.5   s3.357,7.5,7.5,7.5h7.5v60.833H220c-4.143,0-7.5,3.358-7.5,7.5s3.357,7.5,7.5,7.5h7.5V455H220c-4.143,0-7.5,3.358-7.5,7.5   s3.357,7.5,7.5,7.5h30c4.143,0,7.5-3.358,7.5-7.5s-3.357-7.5-7.5-7.5h-7.5v-60.833h7.5c4.143,0,7.5-3.358,7.5-7.5   s-3.357-7.5-7.5-7.5h-7.5v-60.833H250z"/>
    <path d="m462.5,212.5c-4.143,0-7.5,3.358-7.5,7.5v7.5h-60.833v-7.5c0-4.142-3.357-7.5-7.5-7.5s-7.5,3.358-7.5,7.5v7.5h-60.834v-7.5c0-4.142-3.357-7.5-7.5-7.5s-7.5,3.358-7.5,7.5v7.5h-38.333c-4.143,0-7.5,3.358-7.5,7.5s3.357,7.5 7.5,7.5h38.333v7.5c0,4.142 3.357,7.5 7.5,7.5s7.5-3.358 7.5-7.5v-7.5h60.834v7.5c0,4.142 3.357,7.5 7.5,7.5s7.5-3.358 7.5-7.5v-7.5h60.833v7.5c0,4.142 3.357,7.5 7.5,7.5s7.5-3.358 7.5-7.5v-30c0-4.142-3.357-7.5-7.5-7.5z"/>
  </g>
</svg>
