<?xml version='1.0' encoding='iso-8859-1'?>
<svg version="1.1" xmlns="http://www.w3.org/2000/svg" viewBox="0 0 470.006 470.006" xmlns:xlink="http://www.w3.org/1999/xlink" enable-background="new 0 0 470.006 470.006">
  <g>
    <path d="m411.134,120h-12.812c-1.569-22.64-10.258-44.871-26.058-63.022l9.027-9.026c2.929-2.929 2.929-7.678 0-10.606-2.928-2.929-7.677-2.93-10.606-0.001l-9.024,9.023c-17.683-15.417-39.62-24.505-63.025-26.107v-12.761c0-4.143-3.358-7.5-7.5-7.5s-7.5,3.357-7.5,7.5v12.76c-23.405,1.603-45.342,10.69-63.025,26.107l-9.023-9.023c-2.929-2.928-7.678-2.929-10.606,0.001-2.929,2.929-2.929,7.678 0,10.606l8.838,8.838-45.526,45.527-8.838-8.838c-2.929-2.928-7.678-2.928-10.606,0-2.929,2.93-2.929,7.678 0,10.607l8.838,8.838-45.528,45.527-8.839-8.838c-2.929-2.928-7.678-2.929-10.606,0.001-2.929,2.929-2.929,7.678 0,10.606l9.026,9.026c-15.8,18.152-24.488,40.383-26.057,63.023h-12.812c-4.142,0-7.5,3.357-7.5,7.5s3.358,7.5 7.5,7.5h12.812c1.569,22.64 10.258,44.871 26.057,63.023l-26.704,26.704c-9.916,9.916-15.377,23.1-15.377,37.124 0,14.022 5.461,27.207 15.377,37.123 9.916,9.915 23.1,15.376 37.123,15.376s27.207-5.461 37.123-15.377l7.07-7.07c14.621-14.622 38.412-14.621 53.033-0.001 14.621,14.622 14.621,38.413 0,53.033-2.929,2.93-2.929,7.678 0,10.607 1.464,1.464 3.384,2.196 5.303,2.196s3.839-0.732 5.303-2.196c20.469-20.47 20.469-53.776 0-74.247-20.47-20.469-53.775-20.469-74.246,0.001l-7.07,7.07c-7.083,7.083-16.5,10.983-26.516,10.983s-19.434-3.9-26.516-10.983c-7.083-7.082-10.983-16.499-10.983-26.516 0-10.018 3.901-19.435 10.983-26.517l26.701-26.701c17.683,15.417 39.62,24.503 63.025,26.106v12.761c0,4.143 3.358,7.5 7.5,7.5s7.5-3.357 7.5-7.5v-12.761c23.405-1.602 45.342-10.689 63.025-26.106l9.023,9.023c1.464,1.464 3.384,2.196 5.303,2.196s3.839-0.732 5.303-2.197c2.929-2.929 2.929-7.678 0-10.606l-8.838-8.838 45.526-45.527 8.839,8.838c1.464,1.464 3.384,2.196 5.303,2.196s3.839-0.732 5.303-2.197c2.929-2.929 2.929-7.677 0-10.606l-8.838-8.838 45.526-45.527 8.839,8.838c1.464,1.464 3.384,2.196 5.303,2.196s3.839-0.732 5.303-2.197c2.929-2.929 2.929-7.678 0-10.606l-9.026-9.026c15.8-18.152 24.488-40.383 26.057-63.023h12.812c4.142,0 7.5-3.357 7.5-7.5s-3.357-7.499-7.499-7.499zm-54.592,72.907l-112.266,112.268c-17.471,17.471-40.699,27.093-65.407,27.093-24.707,0-47.936-9.622-65.406-27.093-36.065-36.065-36.065-94.749 0-130.814l112.266-112.268c17.467-17.468 40.689-27.089 65.391-27.094 24.733,0.004 47.955,9.625 65.422,27.094 36.065,36.065 36.065,94.749-5.68434e-14,130.814z"/>
    <circle cx="305.279" cy="149.421" r="7.5"/>
    <circle cx="305.279" cy="106.994" r="7.5"/>
    <path d="m236.336,72.698c-2.929,2.93-2.929,7.678 0,10.607 2.929,2.928 7.678,2.928 10.606,0 24.368-24.368 64.018-24.369 88.387-0.001 24.368,24.369 24.368,64.021 0,88.389l-112.265,112.268c-11.784,11.784-27.479,18.273-44.194,18.273s-32.41-6.489-44.193-18.273c-11.783-11.782-18.272-27.478-18.272-44.193s6.489-32.411 18.272-44.194l91.053-91.054c2.929-2.93 2.929-7.678 0-10.607-2.929-2.928-7.678-2.928-10.606,0l-91.053,91.054c-14.617,14.617-22.666,34.079-22.666,54.802s8.049,40.185 22.666,54.8c14.616,14.617 34.078,22.667 54.8,22.667 20.722,0 40.184-8.05 54.8-22.666l112.266-112.268c30.217-30.218 30.217-79.385 0-109.603-30.218-30.218-79.385-30.218-109.601-0.001z"/>
    <circle cx="164.728" cy="217.846" r="7.5"/>
    <path d="m218.236,196.865c-1.574,1.574-2.609,1.673-5.954,1.771-4.086,0.12-10.262,0.302-16.118,6.157-2.929,2.929-2.929,7.678 0,10.606 1.465,1.465 3.384,2.197 5.304,2.197 1.919,0 3.839-0.732 5.303-2.196 1.574-1.574 2.608-1.673 5.953-1.771 4.087-0.12 10.263-0.302 16.12-6.159 5.855-5.855 6.038-12.031 6.158-16.118 0.099-3.345 0.197-4.379 1.772-5.954 1.574-1.573 2.608-1.672 5.952-1.771 4.086-0.12 10.262-0.302 16.118-6.157 5.855-5.855 6.037-12.031 6.157-16.117 0.098-3.345 0.197-4.379 1.771-5.953 2.929-2.929 2.928-7.678-0.001-10.606-2.929-2.928-7.678-2.929-10.606,0.001-5.855,5.855-6.037,12.031-6.157,16.117-0.098,3.345-0.197,4.379-1.77,5.952-1.574,1.574-2.608,1.672-5.952,1.771-4.087,0.12-10.263,0.302-16.119,6.158-5.855,5.855-6.038,12.031-6.158,16.118-0.099,3.345-0.198,4.379-1.773,5.954z"/>
  </g>
</svg>
