<?xml version='1.0' encoding='iso-8859-1'?>
<svg version="1.1" xmlns="http://www.w3.org/2000/svg" viewBox="0 0 470 470" xmlns:xlink="http://www.w3.org/1999/xlink" enable-background="new 0 0 470 470">
  <g>
    <path d="m311.25,353.75h-61.25c-4.143,0-7.5,3.358-7.5,7.5v61.25c0,4.142 3.357,7.5 7.5,7.5h61.25c4.143,0 7.5-3.358 7.5-7.5v-61.25c0-4.142-3.357-7.5-7.5-7.5zm-7.5,61.25h-46.25v-46.25h46.25v46.25z"/>
    <path d="m220,353.75h-61.25c-4.143,0-7.5,3.358-7.5,7.5v61.25c0,4.142 3.357,7.5 7.5,7.5h61.25c4.143,0 7.5-3.358 7.5-7.5v-61.25c0-4.142-3.357-7.5-7.5-7.5zm-7.5,61.25h-46.25v-46.25h46.25v46.25z"/>
    <path d="m220,262.5h-61.25c-4.143,0-7.5,3.358-7.5,7.5v61.25c0,4.142 3.357,7.5 7.5,7.5h61.25c4.143,0 7.5-3.358 7.5-7.5v-61.25c0-4.142-3.357-7.5-7.5-7.5zm-7.5,61.25h-46.25v-46.25h46.25v46.25z"/>
    <path d="m128.75,353.75h-61.25c-4.143,0-7.5,3.358-7.5,7.5v61.25c0,4.142 3.357,7.5 7.5,7.5h61.25c4.143,0 7.5-3.358 7.5-7.5v-61.25c0-4.142-3.357-7.5-7.5-7.5zm-7.5,61.25h-46.25v-46.25h46.25v46.25z"/>
    <path d="m402.5,202.5h-61.25c-4.143,0-7.5,3.358-7.5,7.5v30c0,4.142 3.357,7.5 7.5,7.5h61.25c4.143,0 7.5-3.358 7.5-7.5v-30c0-4.142-3.357-7.5-7.5-7.5zm-7.5,30h-46.25v-15h46.25v15z"/>
    <path d="m311.25,262.5h-61.25c-4.143,0-7.5,3.358-7.5,7.5v61.25c0,4.142 3.357,7.5 7.5,7.5h61.25c4.143,0 7.5-3.358 7.5-7.5v-61.25c0-4.142-3.357-7.5-7.5-7.5zm-7.5,61.25h-46.25v-46.25h46.25v46.25z"/>
    <path d="m128.75,262.5h-61.25c-4.143,0-7.5,3.358-7.5,7.5v61.25c0,4.142 3.357,7.5 7.5,7.5h61.25c4.143,0 7.5-3.358 7.5-7.5v-61.25c0-4.142-3.357-7.5-7.5-7.5zm-7.5,61.25h-46.25v-46.25h46.25v46.25z"/>
    <path d="m311.25,202.5h-61.25c-4.143,0-7.5,3.358-7.5,7.5v30c0,4.142 3.357,7.5 7.5,7.5h61.25c4.143,0 7.5-3.358 7.5-7.5v-30c0-4.142-3.357-7.5-7.5-7.5zm-7.5,30h-46.25v-15h46.25v15z"/>
    <path d="M402.5,0h-335C46.822,0,30,16.822,30,37.5v395c0,20.678,16.822,37.5,37.5,37.5h335c20.678,0,37.5-16.822,37.5-37.5v-395   C440,16.822,423.178,0,402.5,0z M425,432.5c0,12.407-10.094,22.5-22.5,22.5h-335C55.094,455,45,444.907,45,432.5v-395   C45,25.093,55.094,15,67.5,15h335c12.406,0,22.5,10.093,22.5,22.5V432.5z"/>
    <path d="m402.5,262.5h-61.25c-4.143,0-7.5,3.358-7.5,7.5v152.5c0,4.142 3.357,7.5 7.5,7.5h61.25c4.143,0 7.5-3.358 7.5-7.5v-92.5c0-4.142-3.357-7.5-7.5-7.5s-7.5,3.358-7.5,7.5v85h-46.25v-137.5h46.25v22.5c0,4.142 3.357,7.5 7.5,7.5s7.5-3.358 7.5-7.5v-30c0-4.142-3.357-7.5-7.5-7.5z"/>
    <path d="M402.5,40h-335c-4.143,0-7.5,3.358-7.5,7.5V170c0,4.142,3.357,7.5,7.5,7.5h61.25c4.143,0,7.5-3.358,7.5-7.5   s-3.357-7.5-7.5-7.5H75V55h320v107.5H158.75c-4.143,0-7.5,3.358-7.5,7.5s3.357,7.5,7.5,7.5H402.5c4.143,0,7.5-3.358,7.5-7.5V47.5   C410,43.358,406.643,40,402.5,40z"/>
    <path d="m342.5,85h30c4.143,0 7.5-3.358 7.5-7.5s-3.357-7.5-7.5-7.5h-30c-4.143,0-7.5,3.358-7.5,7.5s3.357,7.5 7.5,7.5z"/>
    <path d="m342.5,145h30c4.143,0 7.5-3.358 7.5-7.5s-3.357-7.5-7.5-7.5h-30c-4.143,0-7.5,3.358-7.5,7.5s3.357,7.5 7.5,7.5z"/>
    <path d="m335,117.5c0,4.142 3.357,7.5 7.5,7.5s7.5-3.358 7.5-7.5v-20c0-4.142-3.357-7.5-7.5-7.5s-7.5,3.358-7.5,7.5v20z"/>
  </g>
</svg>
