<?xml version='1.0' encoding='iso-8859-1'?>
<svg version="1.1" xmlns="http://www.w3.org/2000/svg" viewBox="0 0 470 470" xmlns:xlink="http://www.w3.org/1999/xlink" enable-background="new 0 0 470 470">
  <g>
    <path d="M401.17,68.83C356.784,24.444,297.771,0,235,0C177.985,0,122.992,20.685,80.152,58.243   c-3.115,2.73-3.426,7.47-0.695,10.584s7.469,3.427,10.584,0.695C130.144,34.363,181.625,15,235,15c121.309,0,220,98.691,220,220   s-98.691,220-220,220S15,356.309,15,235c0-53.376,19.363-104.857,54.523-144.96c2.73-3.114,2.419-7.854-0.695-10.584   c-3.115-2.73-7.853-2.42-10.584,0.695C20.685,122.991,0,177.984,0,235c0,62.771,24.444,121.784,68.83,166.17S172.229,470,235,470   s121.784-24.444,166.17-68.83S470,297.771,470,235S445.556,113.216,401.17,68.83z"/>
    <path d="m305.71,295.104c-2.928-2.928-7.677-2.929-10.606,0.001-3.491,3.491-7.271,6.652-11.279,9.469l-7.553-13.083c17.4-12.748 28.728-33.317 28.728-56.491 0-38.598-31.402-70-70-70-26.523,0-49.648,14.828-61.521,36.63l-13.974-5.738c3.972-7.646 9.123-14.728 15.391-20.995 2.929-2.93 2.929-7.678 0-10.607-2.929-2.928-7.678-2.928-10.606,0-18.888,18.887-29.29,43.999-29.29,70.71 0,4.143 3.358,7.5 7.5,7.5s7.5-3.357 7.5-7.5c0-8.685 1.304-17.168 3.801-25.236l13.982,5.741c-1.799,6.193-2.783,12.73-2.783,19.495 0,38.598 31.402,70 70,70 10.066,0 19.633-2.152 28.291-5.994l7.55,13.078c-4.447,2.073-9.072,3.768-13.83,5.04-4.002,1.07-6.379,5.181-5.31,9.183 0.896,3.354 3.928,5.565 7.241,5.565 0.641,0 1.293-0.083 1.941-0.256 8.439-2.255 16.53-5.62 24.064-9.971 0.019-0.011 0.039-0.017 0.057-0.028 0.038-0.022 0.073-0.049 0.11-0.071 7.486-4.343 14.42-9.659 20.596-15.836 2.93-2.929 2.93-7.678-5.68434e-14-10.606zm-125.71-60.104c0-30.327 24.673-55 55-55s55,24.673 55,55-24.673,55-55,55-55-24.673-55-55z"/>
    <path d="m292.504,334.614c-17.396,10.066-37.28,15.386-57.504,15.386-4.142,0-7.5,3.357-7.5,7.5s3.358,7.5 7.5,7.5c22.858,0 45.34-6.018 65.016-17.403 3.586-2.074 4.811-6.662 2.735-10.247-2.073-3.586-6.664-4.812-10.247-2.736z"/>
    <path d="m169.984,122.403c-40.084,23.193-64.984,66.337-64.984,112.597 0,4.143 3.358,7.5 7.5,7.5s7.5-3.357 7.5-7.5c0-40.924 22.031-79.094 57.496-99.614 3.585-2.074 4.81-6.662 2.736-10.247-2.075-3.587-6.666-4.81-10.248-2.736z"/>
    <path d="m121.863,121.862c-19.892,19.893-34.225,44.692-41.449,71.721-1.07,4.002 1.307,8.112 5.309,9.183 0.649,0.173 1.3,0.256 1.941,0.256 3.313,0 6.345-2.213 7.241-5.565 6.544-24.484 19.534-46.956 37.564-64.986 2.929-2.93 2.929-7.678 0-10.607-2.928-2.929-7.677-2.929-10.606-0.002z"/>
    <path d="m379.966,369.329c3.14,2.698 7.875,2.342 10.576-0.801 31.894-37.117 49.458-84.539 49.458-133.528 0-113.037-91.963-205-205-205-113.038,0-205,91.963-205,205s91.962,205 205,205c48.989,0 96.411-17.564 133.528-49.458 3.142-2.699 3.5-7.435 0.801-10.576s-7.435-3.498-10.576-0.801c-34.399,29.557-78.349,45.835-123.753,45.835-104.766,0-190-85.233-190-190s85.234-190 190-190c104.767,0 190,85.233 190,190 0,45.404-16.278,89.354-45.835,123.753-2.699,3.142-2.341,7.877 0.801,10.576z"/>
    <circle cx="204.5" cy="385.5" r="7.5"/>
    <circle cx="187.5" cy="90" r="7.5"/>
    <path d="m235.008,133.887c12.417,0 23.333-8.384 26.549-20.388 3.925-14.647-4.799-29.756-19.445-33.68-2.333-0.625-4.732-0.942-7.131-0.942-12.416,0-23.333,8.384-26.55,20.388-3.924,14.647 4.8,29.756 19.446,33.68 2.333,0.624 4.733,0.942 7.131,0.942zm-12.087-30.741c1.462-5.458 6.422-9.27 12.061-9.27 1.088,0 2.181,0.145 3.249,0.431 6.657,1.784 10.622,8.651 8.839,15.31-1.463,5.458-6.422,9.27-12.061,9.27-1.088,0-2.181-0.145-3.249-0.431-6.658-1.784-10.623-8.652-8.839-15.31z"/>
    <path d="m134.411,356.143c0.223,0.214 0.457,0.421 0.712,0.61 0.027,0.02 0.056,0.033 0.083,0.052 1.907,1.564 3.838,3.1 5.82,4.576 4.783,3.562 10.457,5.443 16.407,5.443 8.657,0 16.909-4.142 22.074-11.078 9.055-12.163 6.527-29.425-5.635-38.48-8.039-5.985-15.151-13.098-21.138-21.138-5.166-6.937-13.417-11.077-22.073-11.077-5.951,0-11.625,1.883-16.407,5.444-12.163,9.056-14.689,26.318-5.634,38.48 7.495,10.066 16.159,19.164 25.791,27.168zm-11.199-53.618c2.174-1.619 4.75-2.475 7.448-2.475 3.999,0 7.659,1.836 10.042,5.036l-1.816,1.352c-3.322,2.474-4.01,7.173-1.537,10.495 1.472,1.977 3.732,3.021 6.021,3.021 1.557,0 3.128-0.483 4.473-1.484l2.598-1.934c4.466,4.63 9.294,8.907 14.471,12.762 5.528,4.116 6.677,11.963 2.562,17.491-2.383,3.2-6.043,5.036-10.042,5.036-2.699,0-5.275-0.855-7.449-2.474l1.613-2.167c2.473-3.322 1.785-8.021-1.538-10.494-3.323-2.476-8.021-1.786-10.495,1.537l-1.137,1.527c-6.514-6.007-12.468-12.605-17.778-19.736-4.113-5.529-2.964-13.375 2.564-17.493z"/>
    <path d="m343.434,311.822c3.467,1.495 7.128,2.254 10.88,2.254 10.993,0 20.909-6.522 25.262-16.615 0.978-2.268 1.882-4.564 2.752-6.871 0.014-0.031 0.033-0.058 0.047-0.089 0.125-0.291 0.224-0.586 0.311-0.882 4.339-11.746 7.293-23.958 8.752-36.427 0.691-5.924-0.516-11.777-3.49-16.929-4.328-7.497-12.04-12.572-20.631-13.577-1.066-0.125-2.148-0.188-3.217-0.188-13.938,0-25.671,10.45-27.29,24.308-1.164,9.954-3.768,19.669-7.736,28.875-2.909,6.745-3.017,14.22-0.305,21.046 2.711,6.826 7.919,12.187 14.665,15.095zm20.665-74.324c0.488,0 0.985,0.028 1.476,0.086 3.963,0.464 7.383,2.716 9.382,6.18 1.35,2.336 1.896,4.995 1.582,7.687-1.034,8.831-2.891,17.523-5.528,25.981l-1.748-.754c-3.801-1.641-8.216,0.113-9.856,3.917-1.641,3.803 0.113,8.216 3.917,9.856l2.48,1.07c-1.98,4.59-6.489,7.555-11.489,7.555-1.697,0-3.36-0.346-4.94-1.027-3.065-1.322-5.433-3.759-6.666-6.861-1.232-3.104-1.184-6.501 0.139-9.567 2.556-5.928 4.599-12.045 6.151-18.287l3.215,.376c0.296,0.034 0.59,0.052 0.881,0.052 3.752,0 6.993-2.812 7.439-6.63 0.481-4.114-2.464-7.84-6.578-8.32l-2.247-.263c0.734-6.301 6.062-11.051 12.39-11.051z"/>
    <path d="m339.34,184.949c5.951,0 11.625-1.883 16.407-5.444 5.892-4.387 9.722-10.806 10.786-18.073s-0.766-14.516-5.152-20.407c-7.496-10.067-16.16-19.164-25.792-27.168-0.223-0.214-0.457-0.42-0.711-0.61-0.034-0.026-0.071-0.046-0.106-0.071-1.9-1.557-3.823-3.087-5.797-4.557-4.783-3.561-10.456-5.443-16.407-5.443-8.657,0-16.908,4.142-22.073,11.078-9.056,12.162-6.528,29.425 5.635,38.48 8.039,5.985 15.15,13.098 21.138,21.138 5.165,6.937 13.417,11.077 22.072,11.077zm-34.253-44.246c-5.528-4.116-6.678-11.963-2.562-17.491 2.383-3.2 6.043-5.036 10.042-5.036 2.699,0 5.274,0.855 7.448,2.475 0.001,0-1.612,2.167-1.612,2.167-2.474,3.322-1.785,8.021 1.537,10.494 1.345,1.002 2.915,1.484 4.473,1.484 2.289,0 4.55-1.044 6.021-3.021l1.137-1.527c6.514,6.007 12.468,12.605 17.778,19.736 1.994,2.678 2.825,5.972 2.342,9.275s-2.225,6.221-4.904,8.216c-2.174,1.619-4.749,2.475-7.447,2.475-3.998,0-7.659-1.836-10.042-5.036l1.815-1.352c3.322-2.474 4.01-7.173 1.536-10.495-2.475-3.321-7.171-4.01-10.495-1.536l-2.597,1.934c-4.465-4.631-9.293-8.907-14.47-12.762z"/>
  </g>
</svg>
