<?xml version='1.0' encoding='iso-8859-1'?>
<svg version="1.1" xmlns="http://www.w3.org/2000/svg" viewBox="0 0 470.002 470.002" xmlns:xlink="http://www.w3.org/1999/xlink" enable-background="new 0 0 470.002 470.002">
  <path d="m383.646,396.844l-2.738-8.032c1.459-3.526 2.269-7.386 2.269-11.433 0-11.089-6.053-20.785-15.024-25.978l-44.793-131.383h32.019v2.5c0,4.142 3.358,7.5 7.5,7.5s7.5-3.358 7.5-7.5v-20c0-4.142-3.358-7.5-7.5-7.5s-7.5,3.358-7.5,7.5v2.5h-37.133l-38.263-112.23c-0.173-0.506-0.401-0.986-0.672-1.438 0.295-2.083 0.452-4.203 0.452-6.35 0-22.257-16.246-40.781-37.5-44.363v-33.137c0-4.142-3.358-7.5-7.5-7.5s-7.5,3.358-7.5,7.5v33.137c-21.254,3.582-37.5,22.106-37.5,44.363 0,2.71 0.246,5.378 0.713,7.981l-38.197,112.036h-38.133v-2.5c0-4.142-3.358-7.5-7.5-7.5s-7.5,3.358-7.5,7.5v20c0,4.142 3.358,7.5 7.5,7.5s7.5-3.358 7.5-7.5v-2.5h33.019l-23.715,69.561c-1.337,3.921 0.758,8.183 4.678,9.519 0.802,0.273 1.618,0.403 2.421,0.403 3.121,0 6.035-1.963 7.098-5.082l61.86-181.444c3.152,3.972 6.985,7.425 11.38,10.173l-103.492,303.556c-2.61-2.133-4.743-4.826-6.142-7.921-2.411-5.332-2.526-11.264-0.323-16.703 0.053-0.13 0.102-0.262 0.147-0.395l26.889-78.87c1.337-3.921-0.758-8.183-4.678-9.519-3.921-1.335-8.183,0.759-9.519,4.678l-11.275,33.07c-9.615,5.207-15.664,15.177-15.664,26.334 0,4.185 0.883,8.305 2.559,12.104l-2.446,7.173c-3.672,9.223-3.446,19.267 0.642,28.307 3.115,6.889 8.325,12.652 14.774,16.51l-6.344,18.606c-1.337,3.921 0.758,8.183 4.678,9.519 0.802,0.273 1.618,0.403 2.421,0.403 3.121,0 6.035-1.963 7.098-5.082l20.959-61.475c9.315-5.288 15.177-15.163 15.177-26.067 0-3.992-0.806-7.939-2.336-11.595l49.696-145.766h33.553v12.5c0,4.142 3.358,7.5 7.5,7.5s7.5-3.358 7.5-7.5v-12.5h33.554l49.695,145.762c-1.502,3.57-2.335,7.489-2.335,11.599 0,11.152 6.121,20.895 15.176,26.065l20.96,61.476c1.063,3.119 3.977,5.082 7.098,5.082 0.802,0 1.619-0.13 2.421-0.403 3.92-1.336 6.015-5.598 4.678-9.519l-6.339-18.593c15.018-8.917 22.317-27.509 16.477-44.639zm-45.47-19.465c0-8.271 6.729-15 15-15s15,6.729 15,15-6.729,15-15,15-15-6.729-15-15zm12.789-29.91c-5.216,0.382-10.065,2.101-14.206,4.819l-78.121-229.141c4.723-2.953 8.798-6.719 12.074-11.069l80.253,235.391zm-108.703-224.969c0,4.136-3.364,7.5-7.5,7.5s-7.5-3.364-7.5-7.5c0-0.513 0.052-1.014 0.151-1.498 0.705-3.428 3.732-6.002 7.349-6.002s6.645,2.574 7.346,5.987c0.102,0.499 0.154,1 0.154,1.513zm-7.5-67.5c16.542,0 30,13.458 30,30 0,9.597-4.557,18.417-12.012,24.001-4.109-5.462-10.643-9.001-17.988-9.001s-13.879,3.539-17.988,9.001c-7.455-5.584-12.012-14.403-12.012-24.001 0-16.542 13.458-30 30-30zm7.5,150.018v-12.5c0-4.142-3.358-7.5-7.5-7.5s-7.5,3.358-7.5,7.5v12.5h-28.439l22.093-64.802c3.821,2.993 8.627,4.784 13.846,4.784 5.219,0 10.025-1.791 13.847-4.785l22.093,64.802h-28.44zm119.886,221.739l-6.64-19.477c5.206-0.402 10.043-2.135 14.17-4.864 2.751,9.056-0.483,18.661-7.53,24.341z"/>
</svg>
