<?xml version='1.0' encoding='iso-8859-1'?>
<svg version="1.1" xmlns="http://www.w3.org/2000/svg" viewBox="0 0 470 470" xmlns:xlink="http://www.w3.org/1999/xlink" enable-background="new 0 0 470 470">
  <g>
    <path d="M401.17,68.83C356.784,24.444,297.771,0,235,0S113.216,24.444,68.83,68.83C24.444,113.215,0,172.229,0,235   c0,62.771,24.444,121.784,68.83,166.17S172.229,470,235,470s121.784-24.444,166.17-68.83S470,297.771,470,235   C470,172.229,445.556,113.215,401.17,68.83z M227.5,454.858C109.652,450.889,15,353.797,15,235S109.652,19.111,227.5,15.142   V454.858z M242.5,196.94c17.813,3.504,31.294,19.234,31.294,38.06s-13.481,34.555-31.294,38.06V196.94z M242.5,288.26   c26.123-3.662,46.294-26.144,46.294-53.26s-20.171-49.598-46.294-53.26v-30.181c42.701,3.808,76.294,39.766,76.294,83.441   s-33.593,79.633-76.294,83.441V288.26z M242.5,333.511c50.985-3.845,91.294-46.559,91.294-98.511s-40.309-94.666-91.294-98.511   V98.311c72.011,3.908,129.396,63.72,129.396,136.689S314.511,367.781,242.5,371.689V333.511z M242.5,454.858V439.85   c46.24-1.701,90.716-19.073,125.965-49.373c3.142-2.7,3.499-7.435,0.799-10.577c-2.699-3.14-7.435-3.499-10.576-0.798   c-32.53,27.962-73.534,44.047-116.188,45.741v-38.132c80.286-3.923,144.396-70.469,144.396-151.711S322.786,87.213,242.5,83.289   V45.161C343.802,49.115,425,132.746,425,235c0,45.329-16.301,89.255-45.898,123.688c-2.7,3.141-2.343,7.876,0.799,10.577   c1.415,1.217,3.154,1.813,4.885,1.813c2.11,0,4.208-0.886,5.691-2.611C422.412,331.314,440,283.915,440,235   c0-110.526-87.925-200.886-197.5-204.848v-15.01C360.348,19.111,455,116.203,455,235S360.348,450.889,242.5,454.858z"/>
    <path d="m67.26,248.701c-7.592,0-13.768-6.176-13.768-13.768v-57.287c0-4.142-3.357-7.5-7.5-7.5s-7.5,3.358-7.5,7.5v57.287c0,13.268 9.031,24.461 21.268,27.769v17.115c-6.664,3.77-12.585,8.917-17.388,15.272-2.497,3.304-1.843,8.008 1.461,10.505 3.304,2.497 8.008,1.843 10.506-1.461 4.197-5.553 9.555-9.844 15.608-12.68 0.33-0.127 0.65-0.272 0.955-0.442 5.198-2.275 10.881-3.489 16.779-3.489 23.027,0 41.762,18.735 41.762,41.763v6.331c0,4.142 3.357,7.5 7.5,7.5h22.313c14.287,0 25.911,11.624 25.911,25.911 0,12.196-8.648,22.86-20.563,25.357-3.475,0.728-5.962,3.791-5.962,7.34v18.39c0,4.142 3.357,7.5 7.5,7.5s7.5-3.358 7.5-7.5v-12.784c15.679-5.909 26.524-21.146 26.524-38.302 0-22.559-18.353-40.911-40.911-40.911h-14.824c-0.623-30.763-25.841-55.594-56.75-55.594-4.416,0-8.743,0.503-12.922,1.467v-11.287c12.236-3.308 21.268-14.502 21.268-27.769v-8.769c11.232,0.271 30.32,0.063 48.201-0.257v2.357c0,4.142 3.357,7.5 7.5,7.5s7.5-3.358 7.5-7.5v-109.19c10.51-5.948 17.271-17.247 17.271-29.566 0-18.715-15.226-33.941-33.941-33.941h-4.663c-4.143,0-7.5,3.358-7.5,7.5s3.357,7.5 7.5,7.5h4.663c10.444,0 18.941,8.497 18.941,18.941 0,7.893-4.972,15.035-12.372,17.771-2.944,1.089-4.899,3.896-4.899,7.035v96.588c-24.909,0.431-50.294,0.558-54.097,0.035-2.17-0.474-4.439,0.034-6.199,1.399-1.833,1.421-2.905,3.609-2.905,5.928v16.669c5.68434e-14,7.591-6.175,13.767-13.767,13.767z"/>
    <path d="m201.529,71.826c1.107,0.578 2.292,0.851 3.461,0.851 2.705,0 5.319-1.469 6.656-4.035 1.915-3.673 0.489-8.203-3.184-10.117-8.157-4.252-15.27-10.49-20.567-18.039-2.378-3.389-7.056-4.21-10.447-1.831-3.391,2.38-4.21,7.057-1.83,10.448 6.672,9.507 15.632,17.365 25.911,22.723z"/>
    <path d="m113.043,247.409v2.964c0,4.142 3.357,7.5 7.5,7.5s7.5-3.358 7.5-7.5v-2.964c0-4.142-3.357-7.5-7.5-7.5s-7.5,3.358-7.5,7.5z"/>
  </g>
</svg>
