<?xml version='1.0' encoding='iso-8859-1'?>
<svg version="1.1" xmlns="http://www.w3.org/2000/svg" viewBox="0 0 470 470" xmlns:xlink="http://www.w3.org/1999/xlink" enable-background="new 0 0 470 470">
  <g>
    <path d="M462.5,0H7.5C3.358,0,0,3.358,0,7.5v455c0,4.142,3.358,7.5,7.5,7.5h455c4.143,0,7.5-3.358,7.5-7.5V7.5   C470,3.358,466.643,0,462.5,0z M455,455H15V15h440V455z"/>
    <circle cx="207" cy="382" r="7.5"/>
    <path d="m172.5,342.5v40c0,4.142 3.358,7.5 7.5,7.5s7.5-3.358 7.5-7.5v-40c0-4.142-3.358-7.5-7.5-7.5s-7.5,3.358-7.5,7.5z"/>
    <path d="m282.5,342.5v40c0,4.142 3.357,7.5 7.5,7.5s7.5-3.358 7.5-7.5v-40c0-4.142-3.357-7.5-7.5-7.5s-7.5,3.358-7.5,7.5z"/>
    <path d="m245.5,335c-12.407,0-22.5,10.093-22.5,22.5v10c0,12.407 10.093,22.5 22.5,22.5 12.406,0 22.5-10.093 22.5-22.5v-10c0-12.407-10.094-22.5-22.5-22.5zm7.5,32.5c0,4.136-3.364,7.5-7.5,7.5s-7.5-3.364-7.5-7.5v-10c0-4.136 3.364-7.5 7.5-7.5s7.5,3.364 7.5,7.5v10z"/>
    <path d="m320,314.689c2.063,0 4.035-0.85 5.452-2.35l28.336-30c2.845-3.011 2.709-7.758-0.302-10.602-3.012-2.844-7.759-2.71-10.603,0.302l-22.883,24.228-22.884-24.228c-1.417-1.5-3.389-2.35-5.452-2.35s-4.035,0.85-5.452,2.35l-22.884,24.228-22.884-24.228c-1.417-1.5-3.389-2.35-5.453-2.35-2.063,0-4.036,0.85-5.452,2.351l-22.879,24.226-22.88-24.226c-1.417-1.5-3.389-2.351-5.453-2.351s-4.036,0.85-5.453,2.351l-22.879,24.226-22.879-24.226c-2.845-3.012-7.59-3.148-10.602-0.303-3.012,2.844-3.147,7.591-0.303,10.602l28.332,30c1.417,1.5 3.389,2.351 5.453,2.351s4.036-0.85 5.453-2.351l22.879-24.226 22.88,24.226c1.417,1.5 3.389,2.351 5.453,2.351s4.036-0.85 5.453-2.351l22.88-24.227 22.883,24.227c1.417,1.5 3.389,2.35 5.452,2.35s4.035-0.85 5.452-2.35l22.884-24.228 22.884,24.228c1.416,1.5 3.388,2.35 5.451,2.35z"/>
    <path d="m202,80.622h-30c-4.142,0-7.5,3.358-7.5,7.5v153.756c0,4.142 3.358,7.5 7.5,7.5h30c4.142,0 7.5-3.358 7.5-7.5v-54.378h51v54.378c0,4.142 3.357,7.5 7.5,7.5h30c4.143,0 7.5-3.358 7.5-7.5v-153.756c0-4.142-3.357-7.5-7.5-7.5h-30c-4.143,0-7.5,3.358-7.5,7.5v54.378h-51v-54.378c0-4.142-3.357-7.5-7.5-7.5zm66,76.878c4.143,0 7.5-3.358 7.5-7.5v-54.378h15v138.756h-15v-54.378c0-4.142-3.357-7.5-7.5-7.5h-66c-4.142,0-7.5,3.358-7.5,7.5v54.378h-15v-138.756h15v54.378c0,4.142 3.358,7.5 7.5,7.5h66z"/>
    <path d="m37.5,440h395c4.143,0 7.5-3.358 7.5-7.5v-60c0-4.142-3.357-7.5-7.5-7.5s-7.5,3.358-7.5,7.5v52.5h-380v-380h380v297.5c0,4.142 3.357,7.5 7.5,7.5s7.5-3.358 7.5-7.5v-305c0-4.142-3.357-7.5-7.5-7.5h-395c-4.142,0-7.5,3.358-7.5,7.5v395c0,4.142 3.358,7.5 7.5,7.5z"/>
    <path d="M80,87.5v40c0,4.142,3.358,7.5,7.5,7.5s7.5-3.358,7.5-7.5v-40c0-4.142-3.358-7.5-7.5-7.5S80,83.358,80,87.5z"/>
  </g>
</svg>
