<?xml version='1.0' encoding='iso-8859-1'?>
<svg version="1.1" xmlns="http://www.w3.org/2000/svg" viewBox="0 0 470 470" xmlns:xlink="http://www.w3.org/1999/xlink" enable-background="new 0 0 470 470">
  <g>
    <path d="M325,0c-79.953,0-145,65.047-145,145c0,37.284,14.149,71.323,37.354,97.039l-9.915,9.915l-8.183-8.265   c-0.179-0.225-0.368-0.445-0.576-0.653c-0.194-0.194-0.398-0.374-0.607-0.543l-6.438-6.502c-2.915-2.944-7.664-2.966-10.606-0.053   c-2.944,2.915-2.968,7.663-0.054,10.607l1.785,1.803L2.197,428.913c-2.929,2.929-2.929,7.678,0,10.606l28.284,28.284   c1.465,1.464,3.385,2.197,5.304,2.197s3.839-0.732,5.304-2.197l180.369-180.369l1.732,1.75c1.467,1.481,3.398,2.223,5.33,2.223   c1.907,0,3.814-0.723,5.276-2.17c2.944-2.915,2.968-7.663,0.054-10.607l-15.856-16.016l9.968-9.968   C253.678,275.851,287.717,290,325,290c79.953,0,145-65.047,145-145S404.953,0,325,0z M35.784,451.894l-17.678-17.678   l175.208-175.208l17.589,17.766L35.784,451.894z M325,275c-71.683,0-130-58.318-130-130S253.318,15,325,15s130,58.318,130,130   S396.683,275,325,275z"/>
    <path d="M325,30c-63.411,0-115,51.589-115,115s51.589,115,115,115c25.191,0,49.114-8,69.181-23.134   c3.308-2.494,3.967-7.197,1.473-10.504c-2.494-3.306-7.197-3.967-10.504-1.472C367.705,238.046,346.906,245,325,245   c-55.141,0-100-44.86-100-100S269.86,45,325,45s100,44.86,100,100c0,21.907-6.954,42.706-20.11,60.149   c-2.494,3.307-1.835,8.01,1.472,10.504s8.011,1.834,10.505-1.472C432,194.115,440,170.193,440,145C440,81.589,388.411,30,325,30z"/>
    <path d="m325,205c-4.143,0-7.5,3.358-7.5,7.5s3.357,7.5 7.5,7.5c41.355,0 75-33.645 75-75s-33.645-75-75-75c-14.157,0-27.962,3.983-39.922,11.518-3.505,2.208-4.556,6.839-2.348,10.344 2.209,3.505 6.841,4.557 10.344,2.348 9.563-6.025 20.602-9.21 31.926-9.21 33.084,0 60,26.916 60,60s-26.916,60-60,60z"/>
    <path d="m261.518,105.079c-7.535,11.959-11.518,25.764-11.518,39.921 0,4.142 3.357,7.5 7.5,7.5s7.5-3.358 7.5-7.5c0-11.324 3.185-22.363 9.209-31.925 2.208-3.505 1.157-8.136-2.348-10.344-3.504-2.207-8.135-1.158-10.343,2.348z"/>
  </g>
</svg>
