<?xml version='1.0' encoding='iso-8859-1'?>
<svg version="1.1" xmlns="http://www.w3.org/2000/svg" viewBox="0 0 470 470" xmlns:xlink="http://www.w3.org/1999/xlink" enable-background="new 0 0 470 470">
  <g>
    <path d="m146.897,250.626h9.594v33.668c0,4.142 3.358,7.5 7.5,7.5h30.2c4.142,0 7.5-3.358 7.5-7.5v-33.668h15v33.668c0,4.142 3.358,7.5 7.5,7.5h30.201c4.142,0 7.5-3.358 7.5-7.5v-33.668h9.594c4.142,0 7.5-3.358 7.5-7.5s-3.358-7.5-7.5-7.5h-4.493v-104.88h20.507l65.471,37.313c12.151,6.991 22.417,24.742 22.417,38.761v50.724c0,4.142 3.358,7.5 7.5,7.5s7.5-3.358 7.5-7.5v-50.724c0-19.367-13.15-42.104-29.963-51.778l-67.224-38.312c-1.131-0.645-2.411-0.984-3.713-0.984h-22.496v-38.349c0-4.142-3.358-7.5-7.5-7.5h-12.634v-62.397c0-4.142-3.358-7.5-7.5-7.5h-60.334c-4.142,0-7.5,3.358-7.5,7.5v62.397h-12.634c-4.142,0-7.5,3.358-7.5,7.5v158.229h-4.493c-4.142,0-7.5,3.358-7.5,7.5s3.357,7.5 7.5,7.5zm39.793,26.168h-15.2v-26.168h15.2v26.168zm60.201,0h-15.201v-26.168h15.201v26.168zm-60.368-261.794h45.334v54.897h-45.334v-54.897zm-20.133,69.897h85.602v150.729h-85.602v-150.729z"/>
    <path d="m382.888,280.044c-20.898,0-37.901,17.002-37.901,37.901 0,18.332 13.083,33.662 30.401,37.153v99.902h-307.3l18.392-42.877c5.354-12.482 21.353-23.027 34.934-23.027h231.073c4.142,0 7.5-3.358 7.5-7.5s-3.358-7.5-7.5-7.5h-22.5v-162.544c0-2.7-1.452-5.192-3.801-6.524l-32.997-18.709c-3.604-2.042-8.18-0.778-10.224,2.825-2.043,3.603-0.778,8.18 2.825,10.224l29.196,16.554v94.524h-168.089c-4.142,0-7.5,3.358-7.5,7.5v30c0,4.142 3.358,7.5 7.5,7.5h145.591c4.142,0 7.5-3.358 7.5-7.5s-3.358-7.5-7.5-7.5h-138.091v-15h160.591v48.651h-193.573c-19.594,0-40.994,14.106-48.719,32.114l-22.877,53.333c-0.994,2.317-0.757,4.979 0.631,7.084 1.388,2.105 3.74,3.372 6.262,3.372h326.178c4.142,0 7.5-3.358 7.5-7.5v-107.402c17.318-3.491 30.401-18.821 30.401-37.153-0.001-20.898-17.004-37.901-37.903-37.901zm0,60.803c-12.627,0-22.901-10.273-22.901-22.901 0-12.627 10.273-22.901 22.901-22.901 12.628,0 22.901,10.273 22.901,22.901 0.001,12.627-10.273,22.901-22.901,22.901z"/>
  </g>
</svg>
