<?xml version='1.0' encoding='iso-8859-1'?>
<svg version="1.1" xmlns="http://www.w3.org/2000/svg" viewBox="0 0 470 470" xmlns:xlink="http://www.w3.org/1999/xlink" enable-background="new 0 0 470 470">
  <g>
    <path d="M387.5,0C342.01,0,305,37.01,305,82.5c0,22.474,9.044,42.868,23.67,57.762l-54.837,96.19   C261.647,232.273,248.585,230,235,230s-26.647,2.273-38.833,6.452l-54.837-96.19C155.956,125.368,165,104.974,165,82.5   c0-16.245-4.731-31.976-13.683-45.492c-2.287-3.454-6.942-4.398-10.394-2.112c-3.454,2.287-4.399,6.94-2.112,10.394   C146.131,56.343,150,69.21,150,82.5c0,37.22-30.28,67.5-67.5,67.5S15,119.72,15,82.5S45.28,15,82.5,15   c13.29,0,26.157,3.869,37.211,11.188c3.454,2.286,8.107,1.342,10.394-2.112c2.287-3.453,1.342-8.106-2.112-10.394   C114.476,4.731,98.745,0,82.5,0C37.01,0,0,37.01,0,82.5S37.01,165,82.5,165c6.81,0,13.425-0.845,19.759-2.409l54.846,96.205   C131.353,280.823,115,313.536,115,350c0,66.168,53.832,120,120,120c26.555,0,51.724-8.505,72.784-24.596   c3.292-2.515,3.922-7.222,1.407-10.513c-2.514-3.291-7.222-3.922-10.513-1.407C280.255,447.561,258.235,455,235,455   c-57.897,0-105-47.103-105-105s47.103-105,105-105s105,47.103,105,105c0,23.235-7.439,45.255-21.516,63.679   c-2.515,3.291-1.885,7.998,1.407,10.513c3.291,2.515,7.998,1.886,10.513-1.407C346.495,401.724,355,376.555,355,350   c0-36.464-16.353-69.177-42.105-91.204l54.846-96.205C374.075,164.155,380.69,165,387.5,165c45.49,0,82.5-37.01,82.5-82.5   S432.99,0,387.5,0z M116.661,157.565c4.579-2.092,8.934-4.588,13.021-7.448l52.527,92.138c-4.505,2.216-8.851,4.708-13.018,7.451   L116.661,157.565z M300.81,249.707c-4.167-2.743-8.513-5.235-13.018-7.451l52.527-92.138c4.086,2.86,8.441,5.355,13.021,7.448   L300.81,249.707z M387.5,150c-37.22,0-67.5-30.28-67.5-67.5S350.28,15,387.5,15S455,45.28,455,82.5S424.72,150,387.5,150z"/>
    <circle cx="204.5" cy="410.5" r="7.5"/>
    <circle cx="174.5" cy="380.5" r="7.5"/>
  </g>
</svg>
