<?xml version='1.0' encoding='iso-8859-1'?>
<svg version="1.1" xmlns="http://www.w3.org/2000/svg" viewBox="0 0 470.004 470.004" xmlns:xlink="http://www.w3.org/1999/xlink" enable-background="new 0 0 470.004 470.004">
  <g>
    <path d="m275.833,176.986c-5.487-2.272-11.259-3.425-17.155-3.425-5.557,0-11.04,1.065-16.176,3.049v-18.319c0-4.142-3.358-7.5-7.5-7.5s-7.5,3.358-7.5,7.5v18.319c-5.136-1.984-10.62-3.049-16.177-3.049-5.896,0-11.668,1.152-17.155,3.425-22.862,9.47-33.757,35.774-24.287,58.635l22.938,55.377c4.583,11.065 15.283,18.214 27.26,18.214 3.878,0 7.673-0.757 11.278-2.25 1.261-0.522 2.478-1.126 3.644-1.81 1.166,0.683 2.381,1.287 3.642,1.809 3.605,1.494 7.4,2.251 11.279,2.251 11.977,0 22.677-7.15 27.259-18.214l22.938-55.377c9.469-22.862-1.427-49.166-24.288-58.635zm10.43,52.895l-22.939,55.377c-2.253,5.439-7.513,8.954-13.4,8.954-1.898,0-3.763-0.374-5.539-1.109-1.595-0.661-3.039-1.583-4.292-2.741-1.437-1.328-3.264-1.992-5.09-1.992s-3.653,0.664-5.09,1.992c-1.254,1.159-2.698,2.081-4.293,2.741-1.777,0.736-3.641,1.109-5.539,1.109-5.888,0-11.148-3.515-13.401-8.955l-22.938-55.377c-6.305-15.22 0.949-32.732 16.169-39.037 3.658-1.515 7.498-2.283 11.415-2.283 6.872,0 13.597,2.399 18.935,6.755 0.345,0.275 0.683,0.503 1.037,0.705 0.025,0.014 0.048,0.031 0.073,0.044 0.337,0.187 0.692,0.343 1.059,0.477 0.054,0.02 0.106,0.04 0.16,0.059 0.35,0.119 0.711,0.213 1.083,0.279 0.063,0.011 0.126,0.019 0.19,0.029 0.372,0.057 0.75,0.095 1.138,0.096 0.396-0.001 0.772-0.039 1.141-0.095 0.065-0.01 0.13-0.018 0.195-0.03 0.369-0.066 0.728-0.159 1.076-0.278 0.057-0.019 0.113-0.042 0.17-0.062 0.363-0.133 0.716-0.288 1.05-0.473 0.028-0.015 0.054-0.033 0.081-0.049 0.353-0.202 0.689-0.428 1.003-0.683 5.367-4.375 12.09-6.774 18.962-6.774 3.917,0 7.758,0.768 11.415,2.283 15.219,6.306 22.472,23.817 16.169,39.038z"/>
    <circle cx="259.228" cy="219.211" r="7.5"/>
    <path d="m371.627,144.748c-17.322-8.976-35.701-16.168-54.754-21.5-0.418-0.159-0.845-0.275-1.277-0.356-25.947-7.137-53.127-10.825-80.594-10.825-27.472,0-54.655,3.689-80.605,10.828-0.426,0.08-0.848,0.195-1.26,0.351-19.055,5.333-37.437,12.525-54.761,21.502-40.163,20.812-73.752,50.595-97.139,86.131-1.646,2.502-1.646,5.744 0,8.246 23.387,35.536 56.977,65.319 97.139,86.13 17.356,8.993 35.773,16.196 54.866,21.531 0.329,0.119 0.664,0.208 1.002,0.279 25.996,7.167 53.232,10.871 80.758,10.871 27.526,0 54.764-3.705 80.761-10.872 0.337-0.071 0.67-0.159 0.997-0.278 19.094-5.336 37.511-12.538 54.867-21.532 40.162-20.811 73.753-50.595 97.139-86.13 1.647-2.502 1.647-5.744 0-8.246-23.386-35.535-56.977-65.319-97.139-86.13zm-355.079,90.254c26.405-38.201 64.978-68.042 109.864-86.574-19.476,24.289-30.234,54.492-30.234,86.574s10.758,62.285 30.234,86.574c-44.886-18.533-83.459-48.374-109.864-86.574zm294.49,97.71c-24.313,6.681-49.918,10.225-76.036,10.225-26.118,0-51.723-3.544-76.036-10.225-30.387-23.661-47.787-59.169-47.787-97.71s17.4-74.049 47.788-97.71c24.313-6.681 49.917-10.225 76.036-10.225 26.118,0 51.723,3.544 76.036,10.225 30.386,23.662 47.786,59.169 47.786,97.71-0.001,38.541-17.401,74.048-47.787,97.71zm32.553-11.137c19.476-24.288 30.233-54.491 30.233-86.573 0-32.082-10.757-62.285-30.233-86.574 44.886,18.532 83.459,48.373 109.864,86.574-26.405,38.2-64.977,68.041-109.864,86.573z"/>
    <path d="m383.13,347.452c-44.801,23.215-96.022,35.485-148.128,35.485-52.106,0-103.329-12.271-148.128-35.485-3.677-1.904-8.204-0.469-10.11,3.208-1.906,3.678-0.469,8.204 3.208,10.11 46.923,24.315 100.532,37.167 155.03,37.167 54.498,0 108.106-12.852 155.029-37.167 3.678-1.906 5.114-6.432 3.209-10.11s-6.434-5.113-10.11-3.208z"/>
    <path d="m7.5,179.219c1.944,0 3.887-0.751 5.356-2.25 21.241-21.665 46.144-39.975 74.018-54.418 44.8-23.214 96.022-35.484 148.128-35.484 43.297,0 86.826,8.672 125.879,25.079 3.82,1.605 8.216-0.19 9.82-4.01 1.604-3.819-0.191-8.215-4.01-9.819-40.878-17.172-86.415-26.25-131.69-26.25-54.498,0-108.106,12.852-155.029,37.166-29.287,15.176-55.472,34.434-77.828,57.236-2.9,2.958-2.853,7.706 0.105,10.606 1.46,1.431 3.356,2.144 5.251,2.144z"/>
    <path d="m387.344,124.786c26.18,14.084 49.665,31.642 69.805,52.184 1.469,1.498 3.411,2.25 5.355,2.25 1.895,0 3.791-0.713 5.25-2.145 2.958-2.899 3.005-7.648 0.105-10.606-21.198-21.623-45.896-40.091-73.408-54.893-3.65-1.962-8.196-0.595-10.158,3.052-1.963,3.648-0.597,8.196 3.051,10.158z"/>
  </g>
</svg>
