<?xml version='1.0' encoding='iso-8859-1'?>
<svg version="1.1" xmlns="http://www.w3.org/2000/svg" viewBox="0 0 470 470" xmlns:xlink="http://www.w3.org/1999/xlink" enable-background="new 0 0 470 470">
  <g>
    <path d="M401.17,68.83C356.784,24.444,297.771,0,235,0C172.229,0,113.215,24.444,68.83,68.83C24.444,113.215,0,172.229,0,235   s24.444,121.785,68.83,166.17C113.215,445.556,172.229,470,235,470c62.771,0,121.784-24.444,166.17-68.83   C445.556,356.785,470,297.771,470,235S445.556,113.215,401.17,68.83z M235,455c-121.309,0-220-98.691-220-220S113.691,15,235,15   s220,98.691,220,220S356.309,455,235,455z"/>
    <circle cx="146.737" cy="272.5" r="7.5"/>
    <circle cx="247.208" cy="169.456" r="7.5"/>
    <path d="m275.871,218.633c0,12.407 10.094,22.5 22.5,22.5s22.5-10.093 22.5-22.5-10.094-22.5-22.5-22.5-22.5,10.094-22.5,22.5zm30,0c0,4.136-3.364,7.5-7.5,7.5s-7.5-3.364-7.5-7.5 3.364-7.5 7.5-7.5 7.5,3.365 7.5,7.5z"/>
    <path d="m235,70c-12.407,0-22.5,10.093-22.5,22.5s10.093,22.5 22.5,22.5c12.406,0 22.5-10.093 22.5-22.5s-10.094-22.5-22.5-22.5zm0,30c-4.136,0-7.5-3.364-7.5-7.5s3.364-7.5 7.5-7.5 7.5,3.364 7.5,7.5-3.364,7.5-7.5,7.5z"/>
    <path d="m377.5,257.5c12.406,0 22.5-10.093 22.5-22.5s-10.094-22.5-22.5-22.5-22.5,10.093-22.5,22.5 10.094,22.5 22.5,22.5zm0-30c4.136,0 7.5,3.364 7.5,7.5s-3.364,7.5-7.5,7.5-7.5-3.364-7.5-7.5 3.364-7.5 7.5-7.5z"/>
    <path d="m130.922,309.727c-12.407,0-22.5,10.093-22.5,22.5s10.093,22.5 22.5,22.5 22.5-10.093 22.5-22.5-10.093-22.5-22.5-22.5zm0,30c-4.136,0-7.5-3.364-7.5-7.5s3.364-7.5 7.5-7.5 7.5,3.364 7.5,7.5-3.364,7.5-7.5,7.5z"/>
    <path d="M235,400c20.678,0,37.5-16.822,37.5-37.5S255.678,325,235,325s-37.5,16.822-37.5,37.5S214.322,400,235,400z M235,340   c12.406,0,22.5,10.093,22.5,22.5S247.406,385,235,385c-12.407,0-22.5-10.093-22.5-22.5S222.593,340,235,340z"/>
    <path d="M205,280c20.678,0,37.5-16.822,37.5-37.5S225.678,205,205,205s-37.5,16.822-37.5,37.5S184.322,280,205,280z M205,220   c12.407,0,22.5,10.093,22.5,22.5S217.407,265,205,265s-22.5-10.093-22.5-22.5S192.593,220,205,220z"/>
    <path d="m368.136,150.719c0-20.678-16.822-37.5-37.5-37.5s-37.5,16.822-37.5,37.5 16.822,37.5 37.5,37.5 37.5-16.823 37.5-37.5zm-60,0c0-12.407 10.094-22.5 22.5-22.5s22.5,10.093 22.5,22.5-10.094,22.5-22.5,22.5-22.5-10.094-22.5-22.5z"/>
    <path d="M235,30C121.962,30,30,121.962,30,235s91.962,205,205,205c48.915,0,96.314-17.587,133.465-49.523   c3.142-2.7,3.499-7.436,0.799-10.577c-2.701-3.143-7.438-3.498-10.576-0.798C324.256,408.7,280.329,425,235,425   c-104.766,0-190-85.234-190-190S130.234,45,235,45c104.767,0,190,85.234,190,190c0,45.329-16.301,89.255-45.898,123.687   c-2.7,3.141-2.343,7.876,0.799,10.577c3.14,2.699,7.875,2.343,10.576-0.798C422.412,331.314,440,283.915,440,235   C440,121.962,348.037,30,235,30z"/>
    <path d="m199.415,151.915c0-26.191-21.309-47.5-47.5-47.5s-47.5,21.309-47.5,47.5c0,6.43 1.266,12.671 3.762,18.552 1.619,3.813 6.022,5.592 9.835,3.972 3.813-1.619 5.591-6.021 3.973-9.834-1.705-4.016-2.57-8.285-2.57-12.689 0-17.92 14.58-32.5 32.5-32.5s32.5,14.58 32.5,32.5-14.58,32.5-32.5,32.5c-4.404,0-8.673-0.865-12.689-2.57-3.813-1.618-8.215,0.159-9.835,3.972-1.619,3.813 0.159,8.216 3.972,9.835 5.88,2.497 12.122,3.763 18.552,3.763 26.191-0.001 47.5-21.31 47.5-47.501z"/>
  </g>
</svg>
