<?xml version='1.0' encoding='iso-8859-1'?>
<svg version="1.1" xmlns="http://www.w3.org/2000/svg" viewBox="0 0 470.001 470.001" xmlns:xlink="http://www.w3.org/1999/xlink" enable-background="new 0 0 470.001 470.001">
  <g>
    <path d="m433.912,225.28h-41.017c-8.703-30.166-26.873-57.333-51.62-76.992-27.111-21.537-59.782-32.921-94.479-32.921-25.275,0-50.319,6.338-72.426,18.33l-29.528,16.017v-7.799c0-14.383-11.701-26.084-26.084-26.084s-26.084,11.701-26.084,26.084v36.096l-22.168,12.025v-28.121c0-4.466 2.658-8.476 6.772-10.216 3.815-1.614 5.6-6.014 3.986-9.829-1.613-3.815-6.017-5.601-9.829-3.986-9.677,4.093-15.929,13.526-15.929,24.031v36.257l-49.883,27.057c-0.567,0.308-1.126,0.627-1.685,0.948l-.168,.097c-2.948,1.69-4.392,5.152-3.517,8.437 0.875,3.284 3.849,5.57 7.248,5.57h426.412c11.628,0 21.088,9.46 21.088,21.088 0,11.628-9.46,21.088-21.088,21.088h-273.591c-19.899,0-36.088,16.189-36.088,36.088s16.189,36.088 36.088,36.088h149.358c4.142,0 7.5-3.358 7.5-7.5s-3.358-7.5-7.5-7.5h-149.358c-11.628,0-21.088-9.46-21.088-21.088s9.46-21.088 21.088-21.088h273.591c19.899,0 36.088-16.189 36.088-36.088s-16.189-36.089-36.089-36.089zm-186.788,0c3.396-14.315 16.278-25 31.617-25h32.755c4.142,0 7.5-3.358 7.5-7.5s-3.358-7.5-7.5-7.5h-32.755c-23.639,0-43.295,17.36-46.902,40h-194.849l29.564-16.036c0.018-0.01 0.036-0.019 0.054-0.029l37.143-20.147c2.418-1.312 3.924-3.842 3.924-6.593v-40.561c0-6.112 4.972-11.084 11.084-11.084s11.084,4.972 11.084,11.084v20.4c0,2.644 1.392,5.092 3.664,6.445 2.271,1.353 5.088,1.408 7.412,0.148l40.604-22.024c19.918-10.804 42.489-16.515 65.274-16.515 60.02,0 112.346,38.566 130.432,94.913h-130.105z"/>
    <circle cx="209.741" cy="185.179" r="7.5"/>
    <circle cx="238.741" cy="160.291" r="7.5"/>
  </g>
</svg>
