<?xml version='1.0' encoding='iso-8859-1'?>
<svg version="1.1" xmlns="http://www.w3.org/2000/svg" viewBox="0 0 470 470" xmlns:xlink="http://www.w3.org/1999/xlink" enable-background="new 0 0 470 470">
  <g>
    <path d="M208.958,228.542c63.01,0,114.271-51.262,114.271-114.271S271.968,0,208.958,0C145.949,0,94.688,51.262,94.688,114.271   S145.949,228.542,208.958,228.542z M208.958,15c54.738,0,99.271,44.533,99.271,99.271s-44.533,99.271-99.271,99.271   s-99.271-44.533-99.271-99.271S154.22,15,208.958,15z"/>
    <path d="m296.701,341.928h-17.962c-4.142,0-7.5,3.357-7.5,7.5l-.001,15.248-54.779,74.872v-56.966l71.292-97.441c14.836,6.617 28.901,15.163 41.953,25.559 3.24,2.581 7.959,2.046 10.539-1.194 2.581-3.24 2.047-7.958-1.193-10.54-37.309-29.716-82.293-45.424-130.09-45.424-27.653,0-54.062,5.412-78.242,15.212-0.54,0.152-1.068,0.365-1.574,0.644-22.248,9.23-42.571,22.19-60.177,38.107-0.103,0.068-0.209,0.13-0.31,0.203-0.577,0.422-1.069,0.914-1.487,1.451-41.28,38.199-67.17,92.799-67.17,153.341 0,4.142 3.358,7.5 7.5,7.5s7.5-3.358 7.5-7.5c0-53.604 21.861-102.197 57.132-137.338l20.994,28.694c1.412,1.93 3.661,3.071 6.053,3.071h32.5v10.198c0,1.592 0.507,3.144 1.447,4.429l69.779,95.375c0.031,0.043 0.069,0.08 0.101,0.122 0.114,0.149 0.233,0.293 0.357,0.432 0.063,0.071 0.125,0.141 0.19,0.209 0.138,0.144 0.284,0.28 0.433,0.413 0.053,0.047 0.104,0.098 0.158,0.144 0.208,0.174 0.425,0.338 0.651,0.489 0.03,0.02 0.062,0.036 0.092,0.056 0.199,0.129 0.403,0.248 0.614,0.358 0.065,0.034 0.131,0.063 0.197,0.095 0.182,0.088 0.367,0.17 0.557,0.243 0.076,0.029 0.151,0.057 0.228,0.083 0.186,0.065 0.375,0.122 0.568,0.172 0.079,0.021 0.158,0.043 0.238,0.061 0.2,0.045 0.403,0.08 0.608,0.109 0.073,0.01 0.145,0.025 0.219,0.033 0.276,0.031 0.556,0.05 0.84,0.05s0.564-0.019 0.84-0.05c0.074-0.008 0.146-0.023 0.219-0.033 0.205-0.029 0.408-0.064 0.608-0.109 0.08-0.018 0.159-0.04 0.238-0.061 0.193-0.051 0.382-0.107 0.568-0.172 0.076-0.027 0.152-0.054 0.228-0.083 0.19-0.073 0.375-0.155 0.557-0.243 0.066-0.032 0.132-0.061 0.197-0.095 0.211-0.11 0.416-0.229 0.614-0.358 0.03-0.02 0.062-0.036 0.092-0.056 0.226-0.151 0.443-0.315 0.651-0.489 0.055-0.046 0.105-0.097 0.158-0.144 0.149-0.133 0.295-0.269 0.433-0.413 0.065-0.068 0.127-0.139 0.19-0.209 0.125-0.14 0.243-0.284 0.357-0.432 0.032-0.042 0.07-0.079 0.101-0.122l69.78-95.375c0.94-1.285 1.447-2.836 1.447-4.429v-10.198h10.462c4.143,0 7.5-3.358 7.5-7.5s-3.353-7.499-7.495-7.499zm-95.243,97.619l-54.78-74.873v-15.247c0-4.142-3.358-7.5-7.5-7.5h-36.194l-19.75-26.994c14.082-12.015 29.895-22.055 47.012-29.686l71.212,97.333v56.967zm7.5-72.118l-64.319-87.911c20.138-7.099 41.783-10.976 64.319-10.976 22.319,0 43.975,3.693 64.396,10.87l-64.396,88.017z"/>
    <path d="m193.959,144.209c4.142,0 7.5-3.358 7.5-7.5 0-4.136 3.365-7.5 7.5-7.5 4.136,0 7.5,3.364 7.5,7.5 0,4.142 3.358,7.5 7.5,7.5h41.648c12.958,0 23.5-10.542 23.5-23.5v-23.249c0-12.958-10.542-23.5-23.5-23.5h-113.296c-12.958,0-23.5,10.542-23.5,23.5v23.249c0,12.958 10.542,23.5 23.5,23.5h41.648zm-50.148-23.5v-23.249c0-4.687 3.813-8.5 8.5-8.5h113.296c4.687,0 8.5,3.813 8.5,8.5v23.249c0,4.687-3.813,8.5-8.5,8.5h-35.433c-3.095-8.73-11.437-15-21.215-15s-18.12,6.27-21.215,15h-35.434c-4.686,0-8.499-3.813-8.499-8.5z"/>
    <path d="m416.791,315.156v-79.114c0-4.142-3.357-7.5-7.5-7.5h-37.958c-4.143,0-7.5,3.358-7.5,7.5v79.114c-31.604,11.122-53.21,41.239-53.21,75.155 0,43.94 35.748,79.689 79.688,79.689 43.941,0 79.689-35.748 79.689-79.688 0-33.916-21.605-64.034-53.209-75.156zm-26.48,139.844c-33.131,0-60.509-25.042-64.24-57.189h76.429c4.143,0 7.5-3.358 7.5-7.5s-3.357-7.5-7.5-7.5h-76.432c3.035-25.931 21.599-47.934 47.231-54.904 3.266-0.888 5.532-3.853 5.532-7.237v-77.128h22.958v77.128c0,3.384 2.267,6.349 5.532,7.237 25.632,6.97 44.196,28.973 47.231,54.904h-22.052c-4.143,0-7.5,3.358-7.5,7.5s3.357,7.5 7.5,7.5h22.051c-3.73,32.148-31.108,57.189-64.24,57.189z"/>
  </g>
</svg>
