<?xml version='1.0' encoding='iso-8859-1'?>
<svg version="1.1" xmlns="http://www.w3.org/2000/svg" viewBox="0 0 470 470" xmlns:xlink="http://www.w3.org/1999/xlink" enable-background="new 0 0 470 470">
  <g>
    <path d="M462.5,425H45V7.5C45,3.358,41.643,0,37.5,0S30,3.358,30,7.5v63.333H7.5c-4.143,0-7.5,3.358-7.5,7.5s3.357,7.5,7.5,7.5H30   v55.833H7.5c-4.143,0-7.5,3.358-7.5,7.5s3.357,7.5,7.5,7.5H30V212.5H7.5c-4.143,0-7.5,3.358-7.5,7.5s3.357,7.5,7.5,7.5H30v55.833   H7.5c-4.143,0-7.5,3.358-7.5,7.5s3.357,7.5,7.5,7.5H30v55.833H7.5c-4.143,0-7.5,3.358-7.5,7.5s3.357,7.5,7.5,7.5H30V432.5   c0,4.142,3.357,7.5,7.5,7.5h110.833v22.5c0,4.142,3.357,7.5,7.5,7.5s7.5-3.358,7.5-7.5V440h173.334v22.5c0,4.142,3.357,7.5,7.5,7.5   s7.5-3.358,7.5-7.5V440H462.5c4.143,0,7.5-3.358,7.5-7.5S466.643,425,462.5,425z"/>
    <path d="M77.5,410c4.143,0,7.5-3.358,7.5-7.5v-175h63.333v175c0,4.142,3.357,7.5,7.5,7.5s7.5-3.358,7.5-7.5V298.333H222.5V402.5   c0,4.142,3.357,7.5,7.5,7.5s7.5-3.358,7.5-7.5V290.833c0-4.142-3.357-7.5-7.5-7.5h-66.667V220c0-4.142-3.357-7.5-7.5-7.5H77.5   c-4.143,0-7.5,3.358-7.5,7.5v182.5C70,406.642,73.357,410,77.5,410z"/>
    <path d="M270,410c4.143,0,7.5-3.358,7.5-7.5V85.833h59.167V402.5c0,4.142,3.357,7.5,7.5,7.5s7.5-3.358,7.5-7.5V156.667H415V402.5   c0,4.142,3.357,7.5,7.5,7.5s7.5-3.358,7.5-7.5V149.167c0-4.142-3.357-7.5-7.5-7.5h-70.833V78.333c0-4.142-3.357-7.5-7.5-7.5H270   c-4.143,0-7.5,3.358-7.5,7.5V402.5C262.5,406.642,265.857,410,270,410z"/>
  </g>
</svg>
