<?xml version='1.0' encoding='iso-8859-1'?>
<svg version="1.1" xmlns="http://www.w3.org/2000/svg" viewBox="0 0 470.005 470.005" xmlns:xlink="http://www.w3.org/1999/xlink" enable-background="new 0 0 470.005 470.005">
  <g>
    <path d="m469.432,96.718l-38.144-92.086c-1.585-3.827-5.973-5.646-9.799-4.059l-126.339,52.332c-3.827,1.585-5.645,5.973-4.059,9.799l.995,2.402-206.151,85.39c-1.838,0.761-3.298,2.221-4.059,4.059-0.762,1.838-0.762,3.902 0,5.74l.995,2.403-78.238,32.409c-3.827,1.585-5.645,5.973-4.059,9.799l22.682,54.759c0.761,1.838 2.221,3.298 4.059,4.059 0.919,0.38 1.895,0.571 2.87,0.571s1.951-0.19 2.87-0.571l78.239-32.407 .995,2.403c1.196,2.888 3.988,4.632 6.932,4.632 0.956,0 1.929-0.184 2.867-0.573l185.363-76.78c3.827-1.585 5.645-5.973 4.059-9.799-1.585-3.827-5.971-5.646-9.799-4.059l-178.435,73.91-24.673-59.564 199.223-82.52 31.407,75.825c0.761,1.838 2.221,3.298 4.059,4.059 0.919,0.38 1.895,0.571 2.87,0.571s1.951-0.19 2.87-0.571l27.713-11.479c0.007-0.003 98.627-40.853 98.627-40.853 1.838-0.761 3.298-2.221 4.059-4.059 0.763-1.84 0.763-3.904 0.001-5.742zm-363.878,120.74l-71.31,29.537-16.941-40.901 71.31-29.537 16.941,40.901zm234.667-75.337l-31.407-75.824c-0.001-0.001-0.995-2.403-0.995-2.403l13.859-5.741 32.402,78.227-13.859,5.741zm27.717-11.481l-32.402-78.227 84.766-35.111 32.403,78.227-84.767,35.111z"/>
    <path d="m282.462,320.182h0.13c4.143,0 7.5-3.358 7.5-7.5s-3.357-7.5-7.5-7.5h-4.301l-6.815-24.509c-0.902-3.245-3.857-5.491-7.226-5.491h-21.747v-54.809l24.616-10.197c3.827-1.585 5.645-5.973 4.059-9.799-1.586-3.826-5.972-5.644-9.799-4.059l-29.257,12.119c-0.022,0.009-0.045,0.018-0.067,0.028l-29.17,12.083c-3.827,1.585-5.645,5.973-4.059,9.799 1.196,2.888 3.988,4.632 6.932,4.632 0.956,0 1.929-0.184 2.867-0.573l18.877-7.819v48.596h-21.747c-3.368,0-6.323,2.246-7.226,5.491l-6.815,24.509h-4.301c-4.143,0-7.5,3.358-7.5,7.5s3.357,7.5 7.5,7.5h0.13l-39.014,140.312c-1.11,3.991 1.226,8.125 5.217,9.235 3.989,1.107 8.125-1.227 9.234-5.217l40.132-144.33h24.39v142.321c0,4.142 3.357,7.5 7.5,7.5s7.5-3.358 7.5-7.5v-142.322h24.39l40.132,144.33c0.923,3.319 3.938,5.493 7.222,5.493 0.665,0 1.341-0.089 2.013-0.276 3.991-1.11 6.327-5.245 5.217-9.235l-39.014-140.312zm-75.177-15l4.171-15h47.096l4.171,15h-55.438z"/>
  </g>
</svg>
