<?xml version='1.0' encoding='iso-8859-1'?>
<svg version="1.1" xmlns="http://www.w3.org/2000/svg" viewBox="0 0 470.02 470.02" xmlns:xlink="http://www.w3.org/1999/xlink" enable-background="new 0 0 470.02 470.02">
  <g>
    <path d="m426.873,43.148c-8.5-8.5-19.8-13.18-31.82-13.18-12.02,0-23.32,4.681-31.82,13.18l-42.426,42.426c-2.929,2.929-2.929,7.678 0,10.606l53.033,53.033c1.407,1.407 3.314,2.197 5.304,2.197s3.896-0.79 5.304-2.197l10.605-10.605c0.004-0.004 31.821-31.821 31.821-31.821 17.543-17.545 17.543-46.093-0.001-63.639zm-63.64,74.247l5.303-5.303c2.929-2.929 2.929-7.678 0-10.606-2.93-2.929-7.678-2.929-10.607,0l-5.303,5.303-15.91-15.91 5.298-5.298c11.701-11.703 30.736-11.703 42.432-0.005 11.697,11.697 11.697,30.729 0,42.427-0.003,0.004-5.303,5.303-5.303,5.303l-15.91-15.911zm53.032-21.213l-8.127,8.128c-0.584-10.684-4.941-21.198-13.084-29.341-8.144-8.144-18.658-12.501-29.342-13.085l8.127-8.128c5.667-5.667 13.201-8.787 21.214-8.787 8.014,0 15.547,3.121 21.213,8.787 11.696,11.696 11.696,30.728-0.001,42.426z"/>
    <path d="m448.086,21.935c-14.145-14.145-32.979-21.935-53.033-21.935s-38.888,7.79-53.033,21.936l-77.782,77.782c-1.406,1.406-2.196,3.314-2.196,5.303s0.79,3.897 2.196,5.303l15.91,15.91-26.512,26.512c-0.01,0.01-205.066,205.066-205.066,205.066-11.751,11.752-15.619,28.437-11.629,43.449l-30.349,30.348c-4.25,4.25-6.591,9.9-6.591,15.91s2.341,11.66 6.59,15.91c4.25,4.25 9.9,6.59 15.91,6.59s11.66-2.341 15.91-6.59l30.325-30.325c3.756,1 7.663,1.527 11.653,1.527 12.021,0 23.32-4.681 31.82-13.18l45.962-45.962c2.929-2.929 2.929-7.678 0-10.606-2.93-2.928-7.678-2.929-10.607,0l-45.962,45.962c-11.695,11.697-30.729,11.697-42.426,0s-11.697-30.73 0-42.427l8.838-8.838 1.767,1.767c1.465,1.464 3.384,2.197 5.304,2.197 1.919,0 3.839-0.732 5.303-2.196 2.93-2.929 2.93-7.678 0.001-10.607l-1.768-1.768 21.213-21.213 1.768,1.768c1.465,1.464 3.385,2.197 5.304,2.197s3.839-0.732 5.304-2.197c2.929-2.929 2.929-7.678 0-10.606l-1.768-1.768 21.213-21.213 1.767,1.767c1.465,1.465 3.384,2.197 5.304,2.197 1.919,0 3.839-0.732 5.303-2.196 2.93-2.929 2.93-7.678 0.001-10.606l-1.768-1.768 21.213-21.213 1.768,1.768c1.465,1.464 3.385,2.197 5.304,2.197s3.839-0.732 5.304-2.197c2.929-2.929 2.929-7.678 0-10.606l-1.768-1.768 21.213-21.213 1.767,1.767c1.465,1.465 3.384,2.197 5.304,2.197 1.919,0 3.839-0.732 5.303-2.196 2.93-2.929 2.93-7.678 0.001-10.606l-1.768-1.768 21.213-21.213 1.768,1.768c1.465,1.464 3.385,2.197 5.304,2.197s3.839-0.732 5.304-2.197c2.929-2.929 2.929-7.678 0-10.606l-1.768-1.768 21.213-21.213 1.767,1.767c1.465,1.464 3.385,2.197 5.304,2.197s3.839-0.732 5.304-2.197c2.929-2.929 2.929-7.678 0-10.606l-1.768-1.768 21.213-21.213 15.91,15.91-235.8,235.792c-2.929,2.929-2.929,7.678-1.42109e-14,10.606 1.465,1.465 3.384,2.197 5.304,2.197 1.919,0 3.839-0.732 5.304-2.197l235.797-235.796 15.91,15.91-164.404,164.402c-2.929,2.929-2.929,7.678 0,10.606 1.465,1.464 3.384,2.197 5.304,2.197 1.919,0 3.839-0.732 5.304-2.197l164.402-164.402 15.909,15.909c1.465,1.464 3.385,2.197 5.304,2.197s3.839-0.732 5.304-2.197l77.782-77.782c29.242-29.242 29.242-76.822-0.001-106.065zm-420.282,430.888c-1.416,1.417-3.3,2.197-5.303,2.197s-3.887-0.78-5.304-2.197c-1.416-1.417-2.196-3.3-2.196-5.303s0.78-3.886 2.197-5.303l26.519-26.519c1.435,2.017 3.045,3.946 4.852,5.753 1.796,1.796 3.723,3.41 5.75,4.857l-26.515,26.515zm409.675-335.428l-72.479,72.478-15.905-15.905c-0.01-0.01-26.517-26.517-26.517-26.517-0.01-0.01-26.517-26.517-26.517-26.517-0.01-0.01-15.915-15.915-15.915-15.915l72.479-72.479c11.314-11.31 26.381-17.54 42.428-17.54s31.114,6.229 42.426,17.542c23.395,23.394 23.395,61.458 0,84.853z"/>
  </g>
</svg>
